<svg width="202" height="86" viewBox="0 0 202 86" fill="none" xmlns="http://www.w3.org/2000/svg">
<circle cx="3.09753" cy="3.09753" r="3.09753" transform="matrix(4.37114e-08 1 1 -4.37114e-08 0 -3.94922)" fill="#383350"/>
<circle cx="3.09753" cy="3.09753" r="3.09753" transform="matrix(4.37114e-08 1 1 -4.37114e-08 0 5.34277)" fill="#383350"/>
<circle opacity="0.4" cx="3.09753" cy="3.09753" r="3.09753" transform="matrix(4.37114e-08 1 1 -4.37114e-08 0 14.6348)" fill="#383350"/>
<circle opacity="0.2" cx="3.09753" cy="3.09753" r="3.09753" transform="matrix(4.37114e-08 1 1 -4.37114e-08 9.29297 -3.94922)" fill="#383350"/>
<circle opacity="0.6" cx="3.09753" cy="3.09753" r="3.09753" transform="matrix(4.37114e-08 1 1 -4.37114e-08 9.29297 5.34277)" fill="#383350"/>
<circle cx="3.09753" cy="3.09753" r="3.09753" transform="matrix(4.37114e-08 1 1 -4.37114e-08 9.29297 14.6348)" fill="#383350"/>
<circle cx="3.09753" cy="3.09753" r="3.09753" transform="matrix(4.37114e-08 1 1 -4.37114e-08 9.29297 23.9285)" fill="#383350"/>
<circle cx="3.09753" cy="3.09753" r="3.09753" transform="matrix(4.37114e-08 1 1 -4.37114e-08 18.5859 -3.94922)" fill="#383350"/>
<circle cx="3.09753" cy="3.09753" r="3.09753" transform="matrix(4.37114e-08 1 1 -4.37114e-08 18.5859 5.34277)" fill="#383350"/>
<circle opacity="0.4" cx="3.09753" cy="3.09753" r="3.09753" transform="matrix(4.37114e-08 1 1 -4.37114e-08 18.5859 14.6348)" fill="#383350"/>
<circle cx="3.09753" cy="3.09753" r="3.09753" transform="matrix(4.37114e-08 1 1 -4.37114e-08 18.5859 23.9285)" fill="#383350"/>
<circle opacity="0.4" cx="3.09753" cy="3.09753" r="3.09753" transform="matrix(4.37114e-08 1 1 -4.37114e-08 18.5859 33.2188)" fill="#383350"/>
<circle opacity="0.2" cx="3.09753" cy="3.09753" r="3.09753" transform="matrix(4.37114e-08 1 1 -4.37114e-08 27.8789 -3.94922)" fill="#383350"/>
<circle cx="3.09753" cy="3.09753" r="3.09753" transform="matrix(4.37114e-08 1 1 -4.37114e-08 27.875 5.34277)" fill="#383350"/>
<circle cx="3.09753" cy="3.09753" r="3.09753" transform="matrix(4.37114e-08 1 1 -4.37114e-08 27.875 14.6348)" fill="#383350"/>
<circle cx="3.09753" cy="3.09753" r="3.09753" transform="matrix(4.37114e-08 1 1 -4.37114e-08 27.8789 23.9285)" fill="#383350"/>
<circle cx="3.09753" cy="3.09753" r="3.09753" transform="matrix(4.37114e-08 1 1 -4.37114e-08 27.8789 33.2188)" fill="#383350"/>
<circle cx="3.09753" cy="3.09753" r="3.09753" transform="matrix(4.37114e-08 1 1 -4.37114e-08 37.1719 -3.94922)" fill="#383350"/>
<circle cx="3.09753" cy="3.09753" r="3.09753" transform="matrix(4.37114e-08 1 1 -4.37114e-08 37.1719 5.34277)" fill="#383350"/>
<circle opacity="0.2" cx="3.09753" cy="3.09753" r="3.09753" transform="matrix(4.37114e-08 1 1 -4.37114e-08 37.1719 14.6348)" fill="#383350"/>
<circle cx="3.09753" cy="3.09753" r="3.09753" transform="matrix(4.37114e-08 1 1 -4.37114e-08 37.1719 23.9285)" fill="#383350"/>
<circle cx="3.09753" cy="3.09753" r="3.09753" transform="matrix(4.37114e-08 1 1 -4.37114e-08 46.4648 -3.94922)" fill="#383350"/>
<circle cx="3.09753" cy="3.09753" r="3.09753" transform="matrix(4.37114e-08 1 1 -4.37114e-08 46.4648 5.34277)" fill="#383350"/>
<circle cx="3.09753" cy="3.09753" r="3.09753" transform="matrix(4.37114e-08 1 1 -4.37114e-08 46.4648 14.6348)" fill="#383350"/>
<circle opacity="0.6" cx="3.09753" cy="3.09753" r="3.09753" transform="matrix(4.37114e-08 1 1 -4.37114e-08 46.4648 23.9285)" fill="#383350"/>
<circle opacity="0.2" cx="3.09753" cy="3.09753" r="3.09753" transform="matrix(4.37114e-08 1 1 -4.37114e-08 46.4648 33.2188)" fill="#383350"/>
<circle cx="3.09753" cy="3.09753" r="3.09753" transform="matrix(4.37114e-08 1 1 -4.37114e-08 55.7539 -3.94922)" fill="#383350"/>
<circle cx="3.09753" cy="3.09753" r="3.09753" transform="matrix(4.37114e-08 1 1 -4.37114e-08 55.7578 5.34277)" fill="#383350"/>
<circle cx="3.09753" cy="3.09753" r="3.09753" transform="matrix(4.37114e-08 1 1 -4.37114e-08 55.7578 14.6348)" fill="#383350"/>
<circle cx="3.09753" cy="3.09753" r="3.09753" transform="matrix(4.37114e-08 1 1 -4.37114e-08 55.7578 23.9285)" fill="#383350"/>
<circle opacity="0.6" cx="3.09753" cy="3.09753" r="3.09753" transform="matrix(4.37114e-08 1 1 -4.37114e-08 55.7578 33.2188)" fill="#383350"/>
<circle cx="3.09753" cy="3.09753" r="3.09753" transform="matrix(4.37114e-08 1 1 -4.37114e-08 65.0508 -3.94922)" fill="#383350"/>
<circle cx="3.09753" cy="3.09753" r="3.09753" transform="matrix(4.37114e-08 1 1 -4.37114e-08 65.0508 5.34277)" fill="#383350"/>
<circle cx="3.09753" cy="3.09753" r="3.09753" transform="matrix(4.37114e-08 1 1 -4.37114e-08 65.0508 14.6348)" fill="#383350"/>
<circle opacity="0.4" cx="3.09753" cy="3.09753" r="3.09753" transform="matrix(4.37114e-08 1 1 -4.37114e-08 65.0469 23.9285)" fill="#383350"/>
<circle cx="3.09753" cy="3.09753" r="3.09753" transform="matrix(4.37114e-08 1 1 -4.37114e-08 65.0469 33.2188)" fill="#383350"/>
<circle cx="3.09753" cy="3.09753" r="3.09753" transform="matrix(4.37114e-08 1 1 -4.37114e-08 74.3438 -3.94922)" fill="#383350"/>
<circle cx="3.09753" cy="3.09753" r="3.09753" transform="matrix(4.37114e-08 1 1 -4.37114e-08 74.3438 5.34277)" fill="#383350"/>
<circle opacity="0.6" cx="3.09753" cy="3.09753" r="3.09753" transform="matrix(4.37114e-08 1 1 -4.37114e-08 74.3438 14.6348)" fill="#383350"/>
<circle cx="3.09753" cy="3.09753" r="3.09753" transform="matrix(4.37114e-08 1 1 -4.37114e-08 74.3398 23.9285)" fill="#383350"/>
<circle cx="3.09753" cy="3.09753" r="3.09753" transform="matrix(4.37114e-08 1 1 -4.37114e-08 83.6367 -3.94922)" fill="#383350"/>
<circle cx="3.09753" cy="3.09753" r="3.09753" transform="matrix(4.37114e-08 1 1 -4.37114e-08 83.6367 14.6348)" fill="#383350"/>
<circle opacity="0.2" cx="3.09753" cy="3.09753" r="3.09753" transform="matrix(4.37114e-08 1 1 -4.37114e-08 83.6328 23.9285)" fill="#383350"/>
<circle cx="3.09753" cy="3.09753" r="3.09753" transform="matrix(4.37114e-08 1 1 -4.37114e-08 83.6328 33.2188)" fill="#383350"/>
<circle opacity="0.2" cx="3.09753" cy="3.09753" r="3.09753" transform="matrix(4.37114e-08 1 1 -4.37114e-08 92.9258 -3.94922)" fill="#383350"/>
<circle cx="3.09753" cy="3.09753" r="3.09753" transform="matrix(4.37114e-08 1 1 -4.37114e-08 92.9258 5.34277)" fill="#383350"/>
<circle cx="3.09753" cy="3.09753" r="3.09753" transform="matrix(4.37114e-08 1 1 -4.37114e-08 92.9258 14.6348)" fill="#383350"/>
<circle opacity="0.4" cx="3.09753" cy="3.09753" r="3.09753" transform="matrix(4.37114e-08 1 1 -4.37114e-08 92.9258 33.2188)" fill="#383350"/>
<circle opacity="0.2" cx="3.09753" cy="3.09753" r="3.09753" transform="matrix(-4.37114e-08 -1 -1 4.37114e-08 201.031 86.0342)" fill="#383350"/>
<circle opacity="0.1" cx="3.09753" cy="3.09753" r="3.09753" transform="matrix(-4.37114e-08 -1 -1 4.37114e-08 201.031 76.7422)" fill="#383350"/>
<circle opacity="0.4" cx="3.09753" cy="3.09753" r="3.09753" transform="matrix(-4.37114e-08 -1 -1 4.37114e-08 201.031 67.4502)" fill="#383350"/>
<circle opacity="0.2" cx="3.09753" cy="3.09753" r="3.09753" transform="matrix(-4.37114e-08 -1 -1 4.37114e-08 191.738 86.0342)" fill="#383350"/>
<circle opacity="0.6" cx="3.09753" cy="3.09753" r="3.09753" transform="matrix(-4.37114e-08 -1 -1 4.37114e-08 191.738 76.7422)" fill="#383350"/>
<circle opacity="0.1" cx="3.09753" cy="3.09753" r="3.09753" transform="matrix(-4.37114e-08 -1 -1 4.37114e-08 191.738 67.4502)" fill="#383350"/>
<circle opacity="0.1" cx="3.09753" cy="3.09753" r="3.09753" transform="matrix(-4.37114e-08 -1 -1 4.37114e-08 191.738 58.1565)" fill="#383350"/>
<circle opacity="0.05" cx="3.09753" cy="3.09753" r="3.09753" transform="matrix(-4.37114e-08 -1 -1 4.37114e-08 182.445 86.0342)" fill="#383350"/>
<circle opacity="0.1" cx="3.09753" cy="3.09753" r="3.09753" transform="matrix(-4.37114e-08 -1 -1 4.37114e-08 182.445 76.7422)" fill="#383350"/>
<circle opacity="0.4" cx="3.09753" cy="3.09753" r="3.09753" transform="matrix(-4.37114e-08 -1 -1 4.37114e-08 182.445 67.4502)" fill="#383350"/>
<circle cx="3.09753" cy="3.09753" r="3.09753" transform="matrix(-4.37114e-08 -1 -1 4.37114e-08 182.445 58.1565)" fill="#383350"/>
<circle opacity="0.4" cx="3.09753" cy="3.09753" r="3.09753" transform="matrix(-4.37114e-08 -1 -1 4.37114e-08 182.445 48.8643)" fill="#383350"/>
<circle opacity="0.2" cx="3.09753" cy="3.09753" r="3.09753" transform="matrix(-4.37114e-08 -1 -1 4.37114e-08 173.152 86.0342)" fill="#383350"/>
<circle cx="3.09753" cy="3.09753" r="3.09753" transform="matrix(-4.37114e-08 -1 -1 4.37114e-08 173.156 76.7422)" fill="#383350"/>
<circle opacity="0.2" cx="3.09753" cy="3.09753" r="3.09753" transform="matrix(-4.37114e-08 -1 -1 4.37114e-08 173.156 67.4502)" fill="#383350"/>
<circle opacity="0.2" cx="3.09753" cy="3.09753" r="3.09753" transform="matrix(-4.37114e-08 -1 -1 4.37114e-08 173.152 58.1565)" fill="#383350"/>
<circle cx="3.09753" cy="3.09753" r="3.09753" transform="matrix(-4.37114e-08 -1 -1 4.37114e-08 173.152 48.8643)" fill="#383350"/>
<circle opacity="0.2" cx="3.09753" cy="3.09753" r="3.09753" transform="matrix(-4.37114e-08 -1 -1 4.37114e-08 163.859 86.0342)" fill="#383350"/>
<circle opacity="0.6" cx="3.09753" cy="3.09753" r="3.09753" transform="matrix(-4.37114e-08 -1 -1 4.37114e-08 163.859 76.7422)" fill="#383350"/>
<circle opacity="0.2" cx="3.09753" cy="3.09753" r="3.09753" transform="matrix(-4.37114e-08 -1 -1 4.37114e-08 163.859 67.4502)" fill="#383350"/>
<circle opacity="0.2" cx="3.09753" cy="3.09753" r="3.09753" transform="matrix(-4.37114e-08 -1 -1 4.37114e-08 163.859 58.1565)" fill="#383350"/>
<circle cx="3.09753" cy="3.09753" r="3.09753" transform="matrix(-4.37114e-08 -1 -1 4.37114e-08 154.566 86.0342)" fill="#383350"/>
<circle opacity="0.2" cx="3.09753" cy="3.09753" r="3.09753" transform="matrix(-4.37114e-08 -1 -1 4.37114e-08 154.566 76.7422)" fill="#383350"/>
<circle opacity="0.6" cx="3.09753" cy="3.09753" r="3.09753" transform="matrix(-4.37114e-08 -1 -1 4.37114e-08 154.566 67.4502)" fill="#383350"/>
<circle opacity="0.6" cx="3.09753" cy="3.09753" r="3.09753" transform="matrix(-4.37114e-08 -1 -1 4.37114e-08 154.566 58.1565)" fill="#383350"/>
<circle opacity="0.2" cx="3.09753" cy="3.09753" r="3.09753" transform="matrix(-4.37114e-08 -1 -1 4.37114e-08 154.566 48.8643)" fill="#383350"/>
<circle opacity="0.6" cx="3.09753" cy="3.09753" r="3.09753" transform="matrix(-4.37114e-08 -1 -1 4.37114e-08 145.277 86.0342)" fill="#383350"/>
<circle cx="3.09753" cy="3.09753" r="3.09753" transform="matrix(-4.37114e-08 -1 -1 4.37114e-08 145.277 76.7422)" fill="#383350"/>
<circle cx="3.09753" cy="3.09753" r="3.09753" transform="matrix(-4.37114e-08 -1 -1 4.37114e-08 145.277 67.4502)" fill="#383350"/>
<circle opacity="0.2" cx="3.09753" cy="3.09753" r="3.09753" transform="matrix(-4.37114e-08 -1 -1 4.37114e-08 145.277 58.1565)" fill="#383350"/>
<circle opacity="0.6" cx="3.09753" cy="3.09753" r="3.09753" transform="matrix(-4.37114e-08 -1 -1 4.37114e-08 145.277 48.8643)" fill="#383350"/>
<circle cx="3.09753" cy="3.09753" r="3.09753" transform="matrix(-4.37114e-08 -1 -1 4.37114e-08 135.98 86.0342)" fill="#383350"/>
<circle cx="3.09753" cy="3.09753" r="3.09753" transform="matrix(-4.37114e-08 -1 -1 4.37114e-08 135.98 76.7422)" fill="#383350"/>
<circle cx="3.09753" cy="3.09753" r="3.09753" transform="matrix(-4.37114e-08 -1 -1 4.37114e-08 135.98 67.4502)" fill="#383350"/>
<circle opacity="0.4" cx="3.09753" cy="3.09753" r="3.09753" transform="matrix(-4.37114e-08 -1 -1 4.37114e-08 135.984 58.1565)" fill="#383350"/>
<circle cx="3.09753" cy="3.09753" r="3.09753" transform="matrix(-4.37114e-08 -1 -1 4.37114e-08 135.984 48.8643)" fill="#383350"/>
<circle cx="3.09753" cy="3.09753" r="3.09753" transform="matrix(-4.37114e-08 -1 -1 4.37114e-08 126.688 86.0342)" fill="#383350"/>
<circle cx="3.09753" cy="3.09753" r="3.09753" transform="matrix(-4.37114e-08 -1 -1 4.37114e-08 126.688 76.7422)" fill="#383350"/>
<circle opacity="0.6" cx="3.09753" cy="3.09753" r="3.09753" transform="matrix(-4.37114e-08 -1 -1 4.37114e-08 126.688 67.4502)" fill="#383350"/>
<circle cx="3.09753" cy="3.09753" r="3.09753" transform="matrix(-4.37114e-08 -1 -1 4.37114e-08 126.691 58.1565)" fill="#383350"/>
<circle cx="3.09753" cy="3.09753" r="3.09753" transform="matrix(-4.37114e-08 -1 -1 4.37114e-08 117.395 86.0342)" fill="#383350"/>
<circle cx="3.09753" cy="3.09753" r="3.09753" transform="matrix(-4.37114e-08 -1 -1 4.37114e-08 117.395 67.4502)" fill="#383350"/>
<circle opacity="0.2" cx="3.09753" cy="3.09753" r="3.09753" transform="matrix(-4.37114e-08 -1 -1 4.37114e-08 117.398 58.1565)" fill="#383350"/>
<circle cx="3.09753" cy="3.09753" r="3.09753" transform="matrix(-4.37114e-08 -1 -1 4.37114e-08 117.398 48.8643)" fill="#383350"/>
<circle opacity="0.2" cx="3.09753" cy="3.09753" r="3.09753" transform="matrix(-4.37114e-08 -1 -1 4.37114e-08 108.105 86.0342)" fill="#383350"/>
<circle cx="3.09753" cy="3.09753" r="3.09753" transform="matrix(-4.37114e-08 -1 -1 4.37114e-08 108.105 76.7422)" fill="#383350"/>
<circle cx="3.09753" cy="3.09753" r="3.09753" transform="matrix(-4.37114e-08 -1 -1 4.37114e-08 108.105 67.4502)" fill="#383350"/>
<circle opacity="0.4" cx="3.09753" cy="3.09753" r="3.09753" transform="matrix(-4.37114e-08 -1 -1 4.37114e-08 108.105 48.8643)" fill="#383350"/>
<circle opacity="0.2" cx="3.09753" cy="3.09753" r="3.09753" transform="matrix(-4.37114e-08 -1 -1 4.37114e-08 201.031 30.123)" fill="#383350"/>
<circle opacity="0.1" cx="3.09753" cy="3.09753" r="3.09753" transform="matrix(-4.37114e-08 -1 -1 4.37114e-08 201.031 20.8291)" fill="#383350"/>
<circle opacity="0.05" cx="3.09753" cy="3.09753" r="3.09753" transform="matrix(-4.37114e-08 -1 -1 4.37114e-08 201.031 11.5371)" fill="#383350"/>
<circle opacity="0.1" cx="3.09753" cy="3.09753" r="3.09753" transform="matrix(-4.37114e-08 -1 -1 4.37114e-08 201.031 2.24536)" fill="#383350"/>
<circle opacity="0.1" cx="3.09753" cy="3.09753" r="3.09753" transform="matrix(-4.37114e-08 -1 -1 4.37114e-08 191.738 39.417)" fill="#383350"/>
<circle opacity="0.05" cx="3.09753" cy="3.09753" r="3.09753" transform="matrix(-4.37114e-08 -1 -1 4.37114e-08 191.738 30.123)" fill="#383350"/>
<circle opacity="0.4" cx="3.09753" cy="3.09753" r="3.09753" transform="matrix(-4.37114e-08 -1 -1 4.37114e-08 191.738 20.8291)" fill="#383350"/>
<circle opacity="0.1" cx="3.09753" cy="3.09753" r="3.09753" transform="matrix(-4.37114e-08 -1 -1 4.37114e-08 191.738 11.5371)" fill="#383350"/>
<circle opacity="0.2" cx="3.09753" cy="3.09753" r="3.09753" transform="matrix(-4.37114e-08 -1 -1 4.37114e-08 191.738 2.24536)" fill="#383350"/>
<circle opacity="0.4" cx="3.09753" cy="3.09753" r="3.09753" transform="matrix(-4.37114e-08 -1 -1 4.37114e-08 182.445 39.417)" fill="#383350"/>
<circle opacity="0.1" cx="3.09753" cy="3.09753" r="3.09753" transform="matrix(-4.37114e-08 -1 -1 4.37114e-08 182.445 30.123)" fill="#383350"/>
<circle opacity="0.05" cx="3.09753" cy="3.09753" r="3.09753" transform="matrix(-4.37114e-08 -1 -1 4.37114e-08 182.445 20.8291)" fill="#383350"/>
<circle opacity="0.2" cx="3.09753" cy="3.09753" r="3.09753" transform="matrix(-4.37114e-08 -1 -1 4.37114e-08 182.445 11.5371)" fill="#383350"/>
<circle opacity="0.6" cx="3.09753" cy="3.09753" r="3.09753" transform="matrix(-4.37114e-08 -1 -1 4.37114e-08 182.445 2.24536)" fill="#383350"/>
<circle opacity="0.05" cx="3.09753" cy="3.09753" r="3.09753" transform="matrix(-4.37114e-08 -1 -1 4.37114e-08 173.156 39.417)" fill="#383350"/>
<circle opacity="0.6" cx="3.09753" cy="3.09753" r="3.09753" transform="matrix(-4.37114e-08 -1 -1 4.37114e-08 173.152 30.123)" fill="#383350"/>
<circle opacity="0.2" cx="3.09753" cy="3.09753" r="3.09753" transform="matrix(-4.37114e-08 -1 -1 4.37114e-08 173.152 20.8291)" fill="#383350"/>
<circle opacity="0.4" cx="3.09753" cy="3.09753" r="3.09753" transform="matrix(-4.37114e-08 -1 -1 4.37114e-08 173.156 11.5371)" fill="#383350"/>
<circle opacity="0.6" cx="3.09753" cy="3.09753" r="3.09753" transform="matrix(-4.37114e-08 -1 -1 4.37114e-08 173.156 2.24536)" fill="#383350"/>
<circle opacity="0.2" cx="3.09753" cy="3.09753" r="3.09753" transform="matrix(-4.37114e-08 -1 -1 4.37114e-08 163.859 39.417)" fill="#383350"/>
<circle opacity="0.2" cx="3.09753" cy="3.09753" r="3.09753" transform="matrix(-4.37114e-08 -1 -1 4.37114e-08 163.859 30.123)" fill="#383350"/>
<circle cx="3.09753" cy="3.09753" r="3.09753" transform="matrix(-4.37114e-08 -1 -1 4.37114e-08 163.859 20.8291)" fill="#383350"/>
<circle opacity="0.2" cx="3.09753" cy="3.09753" r="3.09753" transform="matrix(-4.37114e-08 -1 -1 4.37114e-08 163.859 11.5371)" fill="#383350"/>
<circle opacity="0.6" cx="3.09753" cy="3.09753" r="3.09753" transform="matrix(-4.37114e-08 -1 -1 4.37114e-08 163.859 2.24536)" fill="#383350"/>
<circle opacity="0.2" cx="3.09753" cy="3.09753" r="3.09753" transform="matrix(-4.37114e-08 -1 -1 4.37114e-08 154.566 39.417)" fill="#383350"/>
<circle opacity="0.2" cx="3.09753" cy="3.09753" r="3.09753" transform="matrix(-4.37114e-08 -1 -1 4.37114e-08 154.566 30.123)" fill="#383350"/>
<circle opacity="0.2" cx="3.09753" cy="3.09753" r="3.09753" transform="matrix(-4.37114e-08 -1 -1 4.37114e-08 154.566 11.5371)" fill="#383350"/>
<circle cx="3.09753" cy="3.09753" r="3.09753" transform="matrix(-4.37114e-08 -1 -1 4.37114e-08 154.566 2.24536)" fill="#383350"/>
<circle cx="3.09753" cy="3.09753" r="3.09753" transform="matrix(-4.37114e-08 -1 -1 4.37114e-08 145.277 39.417)" fill="#383350"/>
<circle cx="3.09753" cy="3.09753" r="3.09753" transform="matrix(-4.37114e-08 -1 -1 4.37114e-08 145.277 30.123)" fill="#383350"/>
<circle cx="3.09753" cy="3.09753" r="3.09753" transform="matrix(-4.37114e-08 -1 -1 4.37114e-08 145.277 20.8291)" fill="#383350"/>
<circle opacity="0.6" cx="3.09753" cy="3.09753" r="3.09753" transform="matrix(-4.37114e-08 -1 -1 4.37114e-08 145.277 11.5371)" fill="#383350"/>
<circle opacity="0.2" cx="3.09753" cy="3.09753" r="3.09753" transform="matrix(-4.37114e-08 -1 -1 4.37114e-08 145.277 2.24536)" fill="#383350"/>
<circle opacity="0.2" cx="3.09753" cy="3.09753" r="3.09753" transform="matrix(-4.37114e-08 -1 -1 4.37114e-08 135.984 39.417)" fill="#383350"/>
<circle cx="3.09753" cy="3.09753" r="3.09753" transform="matrix(-4.37114e-08 -1 -1 4.37114e-08 135.98 30.123)" fill="#383350"/>
<circle opacity="0.6" cx="3.09753" cy="3.09753" r="3.09753" transform="matrix(-4.37114e-08 -1 -1 4.37114e-08 135.98 20.8291)" fill="#383350"/>
<circle cx="3.09753" cy="3.09753" r="3.09753" transform="matrix(-4.37114e-08 -1 -1 4.37114e-08 135.98 11.5371)" fill="#383350"/>
<circle cx="3.09753" cy="3.09753" r="3.09753" transform="matrix(-4.37114e-08 -1 -1 4.37114e-08 135.98 2.24512)" fill="#383350"/>
<circle cx="3.09753" cy="3.09753" r="3.09753" transform="matrix(-4.37114e-08 -1 -1 4.37114e-08 126.688 39.417)" fill="#383350"/>
<circle opacity="0.4" cx="3.09753" cy="3.09753" r="3.09753" transform="matrix(-4.37114e-08 -1 -1 4.37114e-08 126.688 30.123)" fill="#383350"/>
<circle cx="3.09753" cy="3.09753" r="3.09753" transform="matrix(-4.37114e-08 -1 -1 4.37114e-08 126.691 20.8291)" fill="#383350"/>
<circle cx="3.09753" cy="3.09753" r="3.09753" transform="matrix(-4.37114e-08 -1 -1 4.37114e-08 126.691 11.5371)" fill="#383350"/>
<circle cx="3.09753" cy="3.09753" r="3.09753" transform="matrix(-4.37114e-08 -1 -1 4.37114e-08 126.688 2.24536)" fill="#383350"/>
<circle opacity="0.2" cx="3.09753" cy="3.09753" r="3.09753" transform="matrix(-4.37114e-08 -1 -1 4.37114e-08 117.398 39.417)" fill="#383350"/>
<circle cx="3.09753" cy="3.09753" r="3.09753" transform="matrix(-4.37114e-08 -1 -1 4.37114e-08 117.395 30.123)" fill="#383350"/>
<circle cx="3.09753" cy="3.09753" r="3.09753" transform="matrix(-4.37114e-08 -1 -1 4.37114e-08 117.395 20.8291)" fill="#383350"/>
<circle cx="3.09753" cy="3.09753" r="3.09753" transform="matrix(-4.37114e-08 -1 -1 4.37114e-08 117.395 11.5371)" fill="#383350"/>
<circle cx="3.09753" cy="3.09753" r="3.09753" transform="matrix(-4.37114e-08 -1 -1 4.37114e-08 117.395 2.24512)" fill="#383350"/>
<circle cx="3.09753" cy="3.09753" r="3.09753" transform="matrix(-4.37114e-08 -1 -1 4.37114e-08 108.105 30.123)" fill="#383350"/>
<circle opacity="0.2" cx="3.09753" cy="3.09753" r="3.09753" transform="matrix(-4.37114e-08 -1 -1 4.37114e-08 108.105 20.8291)" fill="#383350"/>
<circle cx="3.09753" cy="3.09753" r="3.09753" transform="matrix(-4.37114e-08 -1 -1 4.37114e-08 108.105 11.5371)" fill="#383350"/>
<circle opacity="0.4" cx="3.09753" cy="3.09753" r="3.09753" transform="matrix(-4.37114e-08 -1 -1 4.37114e-08 108.105 2.24536)" fill="#383350"/>
<circle opacity="0.2" cx="3.09753" cy="3.09753" r="3.09753" transform="matrix(4.37114e-08 1 1 -4.37114e-08 0 51.9629)" fill="#383350"/>
<circle cx="3.09753" cy="3.09753" r="3.09753" transform="matrix(4.37114e-08 1 1 -4.37114e-08 0 61.2568)" fill="#383350"/>
<circle opacity="0.6" cx="3.09753" cy="3.09753" r="3.09753" transform="matrix(4.37114e-08 1 1 -4.37114e-08 0 70.5479)" fill="#383350"/>
<circle cx="3.09753" cy="3.09753" r="3.09753" transform="matrix(4.37114e-08 1 1 -4.37114e-08 0 79.8406)" fill="#383350"/>
<circle cx="3.09753" cy="3.09753" r="3.09753" transform="matrix(4.37114e-08 1 1 -4.37114e-08 9.29297 42.6699)" fill="#383350"/>
<circle cx="3.09753" cy="3.09753" r="3.09753" transform="matrix(4.37114e-08 1 1 -4.37114e-08 9.29297 51.9629)" fill="#383350"/>
<circle opacity="0.4" cx="3.09753" cy="3.09753" r="3.09753" transform="matrix(4.37114e-08 1 1 -4.37114e-08 9.29297 61.2568)" fill="#383350"/>
<circle cx="3.09753" cy="3.09753" r="3.09753" transform="matrix(4.37114e-08 1 1 -4.37114e-08 9.29297 70.5479)" fill="#383350"/>
<circle cx="3.09753" cy="3.09753" r="3.09753" transform="matrix(4.37114e-08 1 1 -4.37114e-08 9.29297 79.8406)" fill="#383350"/>
<circle opacity="0.4" cx="3.09753" cy="3.09753" r="3.09753" transform="matrix(4.37114e-08 1 1 -4.37114e-08 18.5859 42.6699)" fill="#383350"/>
<circle cx="3.09753" cy="3.09753" r="3.09753" transform="matrix(4.37114e-08 1 1 -4.37114e-08 18.5859 51.9629)" fill="#383350"/>
<circle cx="3.09753" cy="3.09753" r="3.09753" transform="matrix(4.37114e-08 1 1 -4.37114e-08 18.5859 61.2568)" fill="#383350"/>
<circle cx="3.09753" cy="3.09753" r="3.09753" transform="matrix(4.37114e-08 1 1 -4.37114e-08 18.5859 70.5479)" fill="#383350"/>
<circle opacity="0.6" cx="3.09753" cy="3.09753" r="3.09753" transform="matrix(4.37114e-08 1 1 -4.37114e-08 18.5859 79.8406)" fill="#383350"/>
<circle cx="3.09753" cy="3.09753" r="3.09753" transform="matrix(4.37114e-08 1 1 -4.37114e-08 27.875 42.6699)" fill="#383350"/>
<circle opacity="0.6" cx="3.09753" cy="3.09753" r="3.09753" transform="matrix(4.37114e-08 1 1 -4.37114e-08 27.8789 51.9629)" fill="#383350"/>
<circle cx="3.09753" cy="3.09753" r="3.09753" transform="matrix(4.37114e-08 1 1 -4.37114e-08 27.8789 61.2568)" fill="#383350"/>
<circle opacity="0.4" cx="3.09753" cy="3.09753" r="3.09753" transform="matrix(4.37114e-08 1 1 -4.37114e-08 27.875 70.5479)" fill="#383350"/>
<circle cx="3.09753" cy="3.09753" r="3.09753" transform="matrix(4.37114e-08 1 1 -4.37114e-08 27.875 79.8406)" fill="#383350"/>
<circle opacity="0.2" cx="3.09753" cy="3.09753" r="3.09753" transform="matrix(4.37114e-08 1 1 -4.37114e-08 37.1719 42.6699)" fill="#383350"/>
<circle cx="3.09753" cy="3.09753" r="3.09753" transform="matrix(4.37114e-08 1 1 -4.37114e-08 37.1719 51.9629)" fill="#383350"/>
<circle cx="3.09753" cy="3.09753" r="3.09753" transform="matrix(4.37114e-08 1 1 -4.37114e-08 37.1719 61.2568)" fill="#383350"/>
<circle cx="3.09753" cy="3.09753" r="3.09753" transform="matrix(4.37114e-08 1 1 -4.37114e-08 37.1719 70.5479)" fill="#383350"/>
<circle opacity="0.6" cx="3.09753" cy="3.09753" r="3.09753" transform="matrix(4.37114e-08 1 1 -4.37114e-08 37.1719 79.8406)" fill="#383350"/>
<circle cx="3.09753" cy="3.09753" r="3.09753" transform="matrix(4.37114e-08 1 1 -4.37114e-08 46.4648 42.6699)" fill="#383350"/>
<circle cx="3.09753" cy="3.09753" r="3.09753" transform="matrix(4.37114e-08 1 1 -4.37114e-08 46.4648 51.9629)" fill="#383350"/>
<circle cx="3.09753" cy="3.09753" r="3.09753" transform="matrix(4.37114e-08 1 1 -4.37114e-08 46.4648 70.5479)" fill="#383350"/>
<circle cx="3.09753" cy="3.09753" r="3.09753" transform="matrix(4.37114e-08 1 1 -4.37114e-08 46.4648 79.8406)" fill="#383350"/>
<circle cx="3.09753" cy="3.09753" r="3.09753" transform="matrix(4.37114e-08 1 1 -4.37114e-08 55.7539 42.6699)" fill="#383350"/>
<circle cx="3.09753" cy="3.09753" r="3.09753" transform="matrix(4.37114e-08 1 1 -4.37114e-08 55.7539 51.9629)" fill="#383350"/>
<circle cx="3.09753" cy="3.09753" r="3.09753" transform="matrix(4.37114e-08 1 1 -4.37114e-08 55.7578 61.2568)" fill="#383350"/>
<circle cx="3.09753" cy="3.09753" r="3.09753" transform="matrix(4.37114e-08 1 1 -4.37114e-08 55.7578 70.5479)" fill="#383350"/>
<circle opacity="0.2" cx="3.09753" cy="3.09753" r="3.09753" transform="matrix(4.37114e-08 1 1 -4.37114e-08 55.7578 79.8406)" fill="#383350"/>
<circle opacity="0.2" cx="3.09753" cy="3.09753" r="3.09753" transform="matrix(4.37114e-08 1 1 -4.37114e-08 65.0469 42.6699)" fill="#383350"/>
<circle cx="3.09753" cy="3.09753" r="3.09753" transform="matrix(4.37114e-08 1 1 -4.37114e-08 65.0508 51.9629)" fill="#383350"/>
<circle opacity="0.6" cx="3.09753" cy="3.09753" r="3.09753" transform="matrix(4.37114e-08 1 1 -4.37114e-08 65.0508 61.2568)" fill="#383350"/>
<circle cx="3.09753" cy="3.09753" r="3.09753" transform="matrix(4.37114e-08 1 1 -4.37114e-08 65.0508 70.5479)" fill="#383350"/>
<circle cx="3.09753" cy="3.09753" r="3.09753" transform="matrix(4.37114e-08 1 1 -4.37114e-08 65.0508 79.8406)" fill="#383350"/>
<circle cx="3.09753" cy="3.09753" r="3.09753" transform="matrix(4.37114e-08 1 1 -4.37114e-08 74.3438 42.6699)" fill="#383350"/>
<circle opacity="0.4" cx="3.09753" cy="3.09753" r="3.09753" transform="matrix(4.37114e-08 1 1 -4.37114e-08 74.3438 51.9629)" fill="#383350"/>
<circle cx="3.09753" cy="3.09753" r="3.09753" transform="matrix(4.37114e-08 1 1 -4.37114e-08 74.3398 61.2568)" fill="#383350"/>
<circle cx="3.09753" cy="3.09753" r="3.09753" transform="matrix(4.37114e-08 1 1 -4.37114e-08 74.3398 70.5479)" fill="#383350"/>
<circle cx="3.09753" cy="3.09753" r="3.09753" transform="matrix(4.37114e-08 1 1 -4.37114e-08 74.3438 79.8406)" fill="#383350"/>
<circle opacity="0.2" cx="3.09753" cy="3.09753" r="3.09753" transform="matrix(4.37114e-08 1 1 -4.37114e-08 83.6328 42.6699)" fill="#383350"/>
<circle cx="3.09753" cy="3.09753" r="3.09753" transform="matrix(4.37114e-08 1 1 -4.37114e-08 83.6367 51.9629)" fill="#383350"/>
<circle cx="3.09753" cy="3.09753" r="3.09753" transform="matrix(4.37114e-08 1 1 -4.37114e-08 83.6367 61.2568)" fill="#383350"/>
<circle cx="3.09753" cy="3.09753" r="3.09753" transform="matrix(4.37114e-08 1 1 -4.37114e-08 83.6367 70.5479)" fill="#383350"/>
<circle cx="3.09753" cy="3.09753" r="3.09753" transform="matrix(4.37114e-08 1 1 -4.37114e-08 83.6367 79.8406)" fill="#383350"/>
<circle cx="3.09753" cy="3.09753" r="3.09753" transform="matrix(4.37114e-08 1 1 -4.37114e-08 92.9258 51.9629)" fill="#383350"/>
<circle opacity="0.2" cx="3.09753" cy="3.09753" r="3.09753" transform="matrix(4.37114e-08 1 1 -4.37114e-08 92.9258 61.2568)" fill="#383350"/>
<circle cx="3.09753" cy="3.09753" r="3.09753" transform="matrix(4.37114e-08 1 1 -4.37114e-08 92.9258 70.5479)" fill="#383350"/>
<circle opacity="0.4" cx="3.09753" cy="3.09753" r="3.09753" transform="matrix(4.37114e-08 1 1 -4.37114e-08 92.9258 79.8406)" fill="#383350"/>
</svg>
