<svg width="360" height="329" viewBox="0 0 360 329" fill="none" xmlns="http://www.w3.org/2000/svg">
<g opacity="0.3">
<ellipse opacity="0.2" cx="20.2718" cy="5.06868" rx="5.0687" ry="5.06868" fill="#E3532F"/>
<ellipse cx="35.4828" cy="5.06868" rx="5.0687" ry="5.06868" fill="#E3532F"/>
<ellipse opacity="0.6" cx="50.6859" cy="5.06868" rx="5.0687" ry="5.06868" fill="#E3532F"/>
<ellipse cx="65.8968" cy="5.06868" rx="5.0687" ry="5.06868" fill="#E3532F"/>
<ellipse opacity="0.4" cx="81.1" cy="5.06868" rx="5.0687" ry="5.06868" fill="#E3532F"/>
<ellipse cx="96.3109" cy="5.06868" rx="5.0687" ry="5.06868" fill="#E3532F"/>
<ellipse cx="111.514" cy="5.06868" rx="5.0687" ry="5.06868" fill="#E3532F"/>
<ellipse cx="126.717" cy="5.06868" rx="5.0687" ry="5.06868" fill="#E3532F"/>
<ellipse opacity="0.4" cx="141.928" cy="5.06868" rx="5.0687" ry="5.06868" fill="#E3532F"/>
<ellipse cx="5.0687" cy="20.2747" rx="5.0687" ry="5.06868" fill="#E3532F"/>
<ellipse cx="20.2718" cy="20.2745" rx="5.0687" ry="5.06868" fill="#E3532F"/>
<ellipse opacity="0.4" cx="35.4828" cy="20.2745" rx="5.0687" ry="5.06868" fill="#E3532F"/>
<ellipse cx="50.6859" cy="20.2747" rx="5.0687" ry="5.06868" fill="#E3532F"/>
<ellipse cx="65.8968" cy="20.2745" rx="5.0687" ry="5.06868" fill="#E3532F"/>
<ellipse cx="96.3109" cy="20.2745" rx="5.0687" ry="5.06868" fill="#E3532F"/>
<ellipse opacity="0.2" cx="111.514" cy="20.2745" rx="5.0687" ry="5.06868" fill="#E3532F"/>
<ellipse opacity="0.6" cx="126.717" cy="20.2745" rx="5.0687" ry="5.06868" fill="#E3532F"/>
<ellipse cx="141.928" cy="20.2745" rx="5.0687" ry="5.06868" fill="#E3532F"/>
<ellipse cx="157.131" cy="20.2745" rx="5.0687" ry="5.06868" fill="#E3532F"/>
<ellipse opacity="0.4" cx="5.0687" cy="35.4808" rx="5.0687" ry="5.06868" fill="#E3532F"/>
<ellipse cx="20.2718" cy="35.481" rx="5.0687" ry="5.06868" fill="#E3532F"/>
<ellipse cx="35.4828" cy="35.4808" rx="5.0687" ry="5.06868" fill="#E3532F"/>
<ellipse cx="50.6859" cy="35.4808" rx="5.0687" ry="5.06868" fill="#E3532F"/>
<ellipse opacity="0.6" cx="65.8968" cy="35.4808" rx="5.0687" ry="5.06868" fill="#E3532F"/>
<ellipse opacity="0.2" cx="81.1" cy="35.4808" rx="5.0687" ry="5.06868" fill="#E3532F"/>
<ellipse cx="96.3109" cy="35.481" rx="5.0687" ry="5.06868" fill="#E3532F"/>
<ellipse cx="111.514" cy="35.4808" rx="5.0687" ry="5.06868" fill="#E3532F"/>
<ellipse cx="126.717" cy="35.481" rx="5.0687" ry="5.06868" fill="#E3532F"/>
<ellipse opacity="0.4" cx="141.928" cy="35.4808" rx="5.0687" ry="5.06868" fill="#E3532F"/>
<ellipse cx="157.131" cy="35.481" rx="5.0687" ry="5.06868" fill="#E3532F"/>
<ellipse opacity="0.4" cx="172.334" cy="35.4808" rx="5.0687" ry="5.06868" fill="#E3532F"/>
<ellipse cx="5.0687" cy="50.6868" rx="5.0687" ry="5.06868" fill="#E3532F"/>
<ellipse opacity="0.6" cx="20.2718" cy="50.6868" rx="5.0687" ry="5.06868" fill="#E3532F"/>
<ellipse cx="35.4828" cy="50.6868" rx="5.0687" ry="5.06868" fill="#E3532F"/>
<ellipse opacity="0.4" cx="50.6859" cy="50.6868" rx="5.0687" ry="5.06868" fill="#E3532F"/>
<ellipse cx="65.8968" cy="50.6868" rx="5.0687" ry="5.06868" fill="#E3532F"/>
<ellipse cx="81.1" cy="50.6868" rx="5.0687" ry="5.06868" fill="#E3532F"/>
<ellipse cx="96.3109" cy="50.6868" rx="5.0687" ry="5.06868" fill="#E3532F"/>
<ellipse opacity="0.2" cx="111.514" cy="50.6868" rx="5.0687" ry="5.06868" fill="#E3532F"/>
<ellipse cx="126.717" cy="50.6868" rx="5.0687" ry="5.06868" fill="#E3532F"/>
<ellipse cx="141.928" cy="50.6868" rx="5.0687" ry="5.06868" fill="#E3532F"/>
<ellipse cx="157.131" cy="50.6868" rx="5.0687" ry="5.06868" fill="#E3532F"/>
<ellipse cx="172.334" cy="50.6868" rx="5.0687" ry="5.06868" fill="#E3532F"/>
<ellipse opacity="0.2" cx="5.0687" cy="65.8929" rx="5.0687" ry="5.06868" fill="#E3532F"/>
<ellipse cx="20.2718" cy="65.8929" rx="5.0687" ry="5.06868" fill="#E3532F"/>
<ellipse cx="35.4828" cy="65.8929" rx="5.0687" ry="5.06868" fill="#E3532F"/>
<ellipse cx="50.6859" cy="65.8929" rx="5.0687" ry="5.06868" fill="#E3532F"/>
<ellipse opacity="0.6" cx="65.8968" cy="65.8929" rx="5.0687" ry="5.06868" fill="#E3532F"/>
<ellipse opacity="0.2" cx="81.1" cy="65.8929" rx="5.0687" ry="5.06868" fill="#E3532F"/>
<ellipse cx="96.3109" cy="65.8929" rx="5.0687" ry="5.06868" fill="#E3532F"/>
<ellipse cx="111.514" cy="65.8929" rx="5.0687" ry="5.06868" fill="#E3532F"/>
<ellipse cx="126.717" cy="65.8929" rx="5.0687" ry="5.06868" fill="#E3532F"/>
<ellipse opacity="0.2" cx="141.928" cy="65.8929" rx="5.0687" ry="5.06868" fill="#E3532F"/>
<ellipse cx="157.131" cy="65.8929" rx="5.0687" ry="5.06868" fill="#E3532F"/>
<ellipse cx="5.0687" cy="81.099" rx="5.0687" ry="5.06868" fill="#E3532F"/>
<ellipse cx="20.2718" cy="81.0987" rx="5.0687" ry="5.06868" fill="#E3532F"/>
<ellipse cx="50.6859" cy="81.099" rx="5.0687" ry="5.06868" fill="#E3532F"/>
<ellipse cx="65.8968" cy="81.0987" rx="5.0687" ry="5.06868" fill="#E3532F"/>
<ellipse cx="81.1" cy="81.0987" rx="5.0687" ry="5.06868" fill="#E3532F"/>
<ellipse cx="96.3109" cy="81.0987" rx="5.0687" ry="5.06868" fill="#E3532F"/>
<ellipse cx="111.514" cy="81.0987" rx="5.0687" ry="5.06868" fill="#E3532F"/>
<ellipse cx="126.717" cy="81.0987" rx="5.0687" ry="5.06868" fill="#E3532F"/>
<ellipse cx="141.928" cy="81.0987" rx="5.0687" ry="5.06868" fill="#E3532F"/>
<ellipse opacity="0.6" cx="157.131" cy="81.0987" rx="5.0687" ry="5.06868" fill="#E3532F"/>
<ellipse opacity="0.2" cx="172.334" cy="81.0987" rx="5.0687" ry="5.06868" fill="#E3532F"/>
<ellipse cx="5.0687" cy="96.305" rx="5.0687" ry="5.06868" fill="#E3532F"/>
<ellipse cx="20.2718" cy="96.3045" rx="5.0687" ry="5.06868" fill="#E3532F"/>
<ellipse cx="35.4828" cy="96.305" rx="5.0687" ry="5.06868" fill="#E3532F"/>
<ellipse cx="50.6859" cy="96.305" rx="5.0687" ry="5.06868" fill="#E3532F"/>
<ellipse opacity="0.2" cx="65.8968" cy="96.305" rx="5.0687" ry="5.06868" fill="#E3532F"/>
<ellipse cx="81.1" cy="96.305" rx="5.0687" ry="5.06868" fill="#E3532F"/>
<ellipse opacity="0.4" cx="96.3109" cy="96.3053" rx="5.0687" ry="5.06868" fill="#E3532F"/>
<ellipse cx="111.514" cy="96.305" rx="5.0687" ry="5.06868" fill="#E3532F"/>
<ellipse cx="126.717" cy="96.3045" rx="5.0687" ry="5.06868" fill="#E3532F"/>
<ellipse cx="141.928" cy="96.305" rx="5.0687" ry="5.06868" fill="#E3532F"/>
<ellipse cx="157.131" cy="96.3045" rx="5.0687" ry="5.06868" fill="#E3532F"/>
<ellipse opacity="0.6" cx="172.334" cy="96.305" rx="5.0687" ry="5.06868" fill="#E3532F"/>
<ellipse opacity="0.2" cx="5.0687" cy="111.511" rx="5.0687" ry="5.06868" fill="#E3532F"/>
<ellipse cx="20.2718" cy="111.511" rx="5.0687" ry="5.06868" fill="#E3532F"/>
<ellipse opacity="0.6" cx="35.4828" cy="111.511" rx="5.0687" ry="5.06868" fill="#E3532F"/>
<ellipse cx="50.6859" cy="111.511" rx="5.0687" ry="5.06868" fill="#E3532F"/>
<ellipse cx="65.8968" cy="111.511" rx="5.0687" ry="5.06868" fill="#E3532F"/>
<ellipse cx="96.3109" cy="111.511" rx="5.0687" ry="5.06868" fill="#E3532F"/>
<ellipse cx="111.514" cy="111.511" rx="5.0687" ry="5.06868" fill="#E3532F"/>
<ellipse cx="126.717" cy="111.511" rx="5.0687" ry="5.06868" fill="#E3532F"/>
<ellipse cx="141.928" cy="111.511" rx="5.0687" ry="5.06868" fill="#E3532F"/>
<ellipse opacity="0.4" cx="157.131" cy="111.511" rx="5.0687" ry="5.06868" fill="#E3532F"/>
<ellipse cx="172.334" cy="111.511" rx="5.0687" ry="5.06868" fill="#E3532F"/>
<ellipse cx="5.0687" cy="126.717" rx="5.0687" ry="5.06868" fill="#E3532F"/>
<ellipse opacity="0.4" cx="20.2718" cy="126.717" rx="5.0687" ry="5.06868" fill="#E3532F"/>
<ellipse cx="35.4828" cy="126.717" rx="5.0687" ry="5.06868" fill="#E3532F"/>
<ellipse cx="50.6859" cy="126.717" rx="5.0687" ry="5.06868" fill="#E3532F"/>
<ellipse cx="65.8968" cy="126.717" rx="5.0687" ry="5.06868" fill="#E3532F"/>
<ellipse cx="81.1" cy="126.717" rx="5.0687" ry="5.06868" fill="#E3532F"/>
<ellipse cx="96.3109" cy="126.717" rx="5.0687" ry="5.06868" fill="#E3532F"/>
<ellipse cx="111.514" cy="126.717" rx="5.0687" ry="5.06868" fill="#E3532F"/>
<ellipse cx="126.717" cy="126.717" rx="5.0687" ry="5.06868" fill="#E3532F"/>
<ellipse opacity="0.6" cx="141.928" cy="126.717" rx="5.0687" ry="5.06868" fill="#E3532F"/>
<ellipse cx="157.131" cy="126.717" rx="5.0687" ry="5.06868" fill="#E3532F"/>
<ellipse opacity="0.2" cx="5.0687" cy="141.923" rx="5.0687" ry="5.06868" fill="#E3532F"/>
<ellipse cx="20.2718" cy="141.923" rx="5.0687" ry="5.06868" fill="#E3532F"/>
<ellipse cx="35.4828" cy="141.923" rx="5.0687" ry="5.06868" fill="#E3532F"/>
<ellipse cx="50.6859" cy="141.923" rx="5.0687" ry="5.06868" fill="#E3532F"/>
<ellipse cx="65.8968" cy="141.923" rx="5.0687" ry="5.06868" fill="#E3532F"/>
<ellipse opacity="0.4" cx="81.1" cy="141.923" rx="5.0687" ry="5.06868" fill="#E3532F"/>
<ellipse cx="96.3109" cy="141.923" rx="5.0687" ry="5.06868" fill="#E3532F"/>
<ellipse cx="111.514" cy="141.923" rx="5.0687" ry="5.06868" fill="#E3532F"/>
<ellipse cx="141.928" cy="141.923" rx="5.0687" ry="5.06868" fill="#E3532F"/>
<ellipse opacity="0.2" cx="157.131" cy="141.923" rx="5.0687" ry="5.06868" fill="#E3532F"/>
<ellipse cx="172.334" cy="141.923" rx="5.0687" ry="5.06868" fill="#E3532F"/>
<ellipse cx="20.2718" cy="157.13" rx="5.0687" ry="5.06868" fill="#E3532F"/>
<ellipse opacity="0.2" cx="35.4828" cy="157.129" rx="5.0687" ry="5.06868" fill="#E3532F"/>
<ellipse cx="50.6859" cy="157.129" rx="5.0687" ry="5.06868" fill="#E3532F"/>
<ellipse opacity="0.4" cx="65.8968" cy="157.129" rx="5.0687" ry="5.06868" fill="#E3532F"/>
<ellipse cx="81.1" cy="157.129" rx="5.0687" ry="5.06868" fill="#E3532F"/>
<ellipse opacity="0.6" cx="96.3109" cy="157.13" rx="5.0687" ry="5.06868" fill="#E3532F"/>
<ellipse opacity="0.2" cx="111.514" cy="157.129" rx="5.0687" ry="5.06868" fill="#E3532F"/>
<ellipse cx="126.717" cy="157.13" rx="5.0687" ry="5.06868" fill="#E3532F"/>
<ellipse cx="141.928" cy="157.129" rx="5.0687" ry="5.06868" fill="#E3532F"/>
<ellipse opacity="0.4" cx="172.334" cy="157.129" rx="5.0687" ry="5.06868" fill="#E3532F"/>
<ellipse opacity="0.2" cx="339.865" cy="323.892" rx="5.0687" ry="5.06868" transform="rotate(-180 339.865 323.892)" fill="#E3532F"/>
<ellipse opacity="0.1" cx="324.662" cy="323.892" rx="5.0687" ry="5.06868" transform="rotate(-180 324.662 323.892)" fill="#E3532F"/>
<ellipse opacity="0.05" cx="309.451" cy="323.892" rx="5.0687" ry="5.06868" transform="rotate(-180 309.451 323.892)" fill="#E3532F"/>
<ellipse opacity="0.1" cx="294.244" cy="323.892" rx="5.0687" ry="5.06868" transform="rotate(-180 294.244 323.892)" fill="#E3532F"/>
<ellipse opacity="0.4" cx="279.041" cy="323.892" rx="5.0687" ry="5.06868" transform="rotate(-180 279.041 323.892)" fill="#E3532F"/>
<ellipse opacity="0.1" cx="263.83" cy="323.892" rx="5.0687" ry="5.06868" transform="rotate(-180 263.83 323.892)" fill="#E3532F"/>
<ellipse opacity="0.2" cx="248.627" cy="323.892" rx="5.0687" ry="5.06868" transform="rotate(-180 248.627 323.892)" fill="#E3532F"/>
<ellipse opacity="0.1" cx="233.423" cy="323.892" rx="5.0687" ry="5.06868" transform="rotate(-180 233.423 323.892)" fill="#E3532F"/>
<ellipse opacity="0.4" cx="218.213" cy="323.892" rx="5.0687" ry="5.06868" transform="rotate(-180 218.213 323.892)" fill="#E3532F"/>
<ellipse opacity="0.1" cx="355.072" cy="308.685" rx="5.0687" ry="5.06868" transform="rotate(-180 355.072 308.685)" fill="#E3532F"/>
<ellipse opacity="0.1" cx="339.865" cy="308.685" rx="5.0687" ry="5.06868" transform="rotate(-180 339.865 308.685)" fill="#E3532F"/>
<ellipse opacity="0.4" cx="324.662" cy="308.686" rx="5.0687" ry="5.06868" transform="rotate(-180 324.662 308.686)" fill="#E3532F"/>
<ellipse opacity="0.2" cx="309.451" cy="308.686" rx="5.0687" ry="5.06868" transform="rotate(-180 309.451 308.686)" fill="#E3532F"/>
<ellipse opacity="0.1" cx="294.244" cy="308.686" rx="5.0687" ry="5.06868" transform="rotate(-180 294.244 308.686)" fill="#E3532F"/>
<ellipse opacity="0.1" cx="263.83" cy="308.686" rx="5.0687" ry="5.06868" transform="rotate(-180 263.83 308.686)" fill="#E3532F"/>
<ellipse opacity="0.2" cx="248.627" cy="308.686" rx="5.0687" ry="5.06868" transform="rotate(-180 248.627 308.686)" fill="#E3532F"/>
<ellipse opacity="0.6" cx="233.423" cy="308.685" rx="5.0687" ry="5.06868" transform="rotate(-180 233.423 308.685)" fill="#E3532F"/>
<ellipse opacity="0.1" cx="218.213" cy="308.686" rx="5.0687" ry="5.06868" transform="rotate(-180 218.213 308.686)" fill="#E3532F"/>
<ellipse opacity="0.1" cx="203.009" cy="308.685" rx="5.0687" ry="5.06868" transform="rotate(-180 203.009 308.685)" fill="#E3532F"/>
<ellipse opacity="0.4" cx="355.072" cy="293.479" rx="5.0687" ry="5.06868" transform="rotate(-180 355.072 293.479)" fill="#E3532F"/>
<ellipse opacity="0.1" cx="339.865" cy="293.48" rx="5.0687" ry="5.06868" transform="rotate(-180 339.865 293.48)" fill="#E3532F"/>
<ellipse opacity="0.2" cx="324.662" cy="293.479" rx="5.0687" ry="5.06868" transform="rotate(-180 324.662 293.479)" fill="#E3532F"/>
<ellipse opacity="0.2" cx="309.451" cy="293.479" rx="5.0687" ry="5.06868" transform="rotate(-180 309.451 293.479)" fill="#E3532F"/>
<ellipse opacity="0.6" cx="294.244" cy="293.479" rx="5.0687" ry="5.06868" transform="rotate(-180 294.244 293.479)" fill="#E3532F"/>
<ellipse opacity="0.2" cx="279.041" cy="293.479" rx="5.0687" ry="5.06868" transform="rotate(-180 279.041 293.479)" fill="#E3532F"/>
<ellipse opacity="0.2" cx="263.83" cy="293.479" rx="5.0687" ry="5.06868" transform="rotate(-180 263.83 293.479)" fill="#E3532F"/>
<ellipse opacity="0.05" cx="248.627" cy="293.479" rx="5.0687" ry="5.06868" transform="rotate(-180 248.627 293.479)" fill="#E3532F"/>
<ellipse opacity="0.1" cx="233.423" cy="293.48" rx="5.0687" ry="5.06868" transform="rotate(-180 233.423 293.48)" fill="#E3532F"/>
<ellipse opacity="0.4" cx="218.213" cy="293.479" rx="5.0687" ry="5.06868" transform="rotate(-180 218.213 293.479)" fill="#E3532F"/>
<ellipse cx="203.009" cy="293.48" rx="5.0687" ry="5.06868" transform="rotate(-180 203.009 293.48)" fill="#E3532F"/>
<ellipse opacity="0.4" cx="187.798" cy="293.479" rx="5.0687" ry="5.06868" transform="rotate(-180 187.798 293.479)" fill="#E3532F"/>
<ellipse opacity="0.2" cx="355.072" cy="278.273" rx="5.0687" ry="5.06868" transform="rotate(-180 355.072 278.273)" fill="#E3532F"/>
<ellipse opacity="0.6" cx="339.865" cy="278.274" rx="5.0687" ry="5.06868" transform="rotate(-180 339.865 278.274)" fill="#E3532F"/>
<ellipse opacity="0.05" cx="324.662" cy="278.273" rx="5.0687" ry="5.06868" transform="rotate(-180 324.662 278.273)" fill="#E3532F"/>
<ellipse opacity="0.4" cx="309.451" cy="278.273" rx="5.0687" ry="5.06868" transform="rotate(-180 309.451 278.273)" fill="#E3532F"/>
<ellipse opacity="0.2" cx="294.244" cy="278.273" rx="5.0687" ry="5.06868" transform="rotate(-180 294.244 278.273)" fill="#E3532F"/>
<ellipse opacity="0.2" cx="279.041" cy="278.273" rx="5.0687" ry="5.06868" transform="rotate(-180 279.041 278.273)" fill="#E3532F"/>
<ellipse cx="263.83" cy="278.273" rx="5.0687" ry="5.06868" transform="rotate(-180 263.83 278.273)" fill="#E3532F"/>
<ellipse opacity="0.2" cx="248.627" cy="278.273" rx="5.0687" ry="5.06868" transform="rotate(-180 248.627 278.273)" fill="#E3532F"/>
<ellipse cx="233.423" cy="278.274" rx="5.0687" ry="5.06868" transform="rotate(-180 233.423 278.274)" fill="#E3532F"/>
<ellipse opacity="0.2" cx="218.213" cy="278.273" rx="5.0687" ry="5.06868" transform="rotate(-180 218.213 278.273)" fill="#E3532F"/>
<ellipse opacity="0.2" cx="203.009" cy="278.274" rx="5.0687" ry="5.06868" transform="rotate(-180 203.009 278.274)" fill="#E3532F"/>
<ellipse cx="187.798" cy="278.273" rx="5.0687" ry="5.06868" transform="rotate(-180 187.798 278.273)" fill="#E3532F"/>
<ellipse opacity="0.2" cx="355.072" cy="263.068" rx="5.0687" ry="5.06868" transform="rotate(-180 355.072 263.068)" fill="#E3532F"/>
<ellipse opacity="0.2" cx="339.865" cy="263.068" rx="5.0687" ry="5.06868" transform="rotate(-180 339.865 263.068)" fill="#E3532F"/>
<ellipse opacity="0.2" cx="324.662" cy="263.068" rx="5.0687" ry="5.06868" transform="rotate(-180 324.662 263.068)" fill="#E3532F"/>
<ellipse opacity="0.2" cx="309.451" cy="263.068" rx="5.0687" ry="5.06868" transform="rotate(-180 309.451 263.068)" fill="#E3532F"/>
<ellipse opacity="0.6" cx="294.244" cy="263.068" rx="5.0687" ry="5.06868" transform="rotate(-180 294.244 263.068)" fill="#E3532F"/>
<ellipse opacity="0.2" cx="279.041" cy="263.068" rx="5.0687" ry="5.06868" transform="rotate(-180 279.041 263.068)" fill="#E3532F"/>
<ellipse opacity="0.2" cx="263.83" cy="263.068" rx="5.0687" ry="5.06868" transform="rotate(-180 263.83 263.068)" fill="#E3532F"/>
<ellipse opacity="0.2" cx="248.627" cy="263.068" rx="5.0687" ry="5.06868" transform="rotate(-180 248.627 263.068)" fill="#E3532F"/>
<ellipse opacity="0.6" cx="233.423" cy="263.068" rx="5.0687" ry="5.06868" transform="rotate(-180 233.423 263.068)" fill="#E3532F"/>
<ellipse opacity="0.2" cx="218.213" cy="263.068" rx="5.0687" ry="5.06868" transform="rotate(-180 218.213 263.068)" fill="#E3532F"/>
<ellipse opacity="0.2" cx="203.009" cy="263.068" rx="5.0687" ry="5.06868" transform="rotate(-180 203.009 263.068)" fill="#E3532F"/>
<ellipse opacity="0.2" cx="355.072" cy="247.861" rx="5.0687" ry="5.06868" transform="rotate(-180 355.072 247.861)" fill="#E3532F"/>
<ellipse cx="339.865" cy="247.861" rx="5.0687" ry="5.06868" transform="rotate(-180 339.865 247.861)" fill="#E3532F"/>
<ellipse opacity="0.2" cx="309.451" cy="247.861" rx="5.0687" ry="5.06868" transform="rotate(-180 309.451 247.861)" fill="#E3532F"/>
<ellipse opacity="0.6" cx="294.244" cy="247.862" rx="5.0687" ry="5.06868" transform="rotate(-180 294.244 247.862)" fill="#E3532F"/>
<ellipse cx="279.041" cy="247.862" rx="5.0687" ry="5.06868" transform="rotate(-180 279.041 247.862)" fill="#E3532F"/>
<ellipse opacity="0.2" cx="263.83" cy="247.862" rx="5.0687" ry="5.06868" transform="rotate(-180 263.83 247.862)" fill="#E3532F"/>
<ellipse cx="248.627" cy="247.862" rx="5.0687" ry="5.06868" transform="rotate(-180 248.627 247.862)" fill="#E3532F"/>
<ellipse opacity="0.2" cx="233.423" cy="247.861" rx="5.0687" ry="5.06868" transform="rotate(-180 233.423 247.861)" fill="#E3532F"/>
<ellipse opacity="0.6" cx="218.213" cy="247.862" rx="5.0687" ry="5.06868" transform="rotate(-180 218.213 247.862)" fill="#E3532F"/>
<ellipse opacity="0.6" cx="203.009" cy="247.861" rx="5.0687" ry="5.06868" transform="rotate(-180 203.009 247.861)" fill="#E3532F"/>
<ellipse opacity="0.2" cx="187.798" cy="247.862" rx="5.0687" ry="5.06868" transform="rotate(-180 187.798 247.862)" fill="#E3532F"/>
<ellipse opacity="0.2" cx="355.072" cy="232.655" rx="5.0687" ry="5.06868" transform="rotate(-180 355.072 232.655)" fill="#E3532F"/>
<ellipse opacity="0.2" cx="339.865" cy="232.655" rx="5.0687" ry="5.06868" transform="rotate(-180 339.865 232.655)" fill="#E3532F"/>
<ellipse opacity="0.6" cx="324.662" cy="232.655" rx="5.0687" ry="5.06868" transform="rotate(-180 324.662 232.655)" fill="#E3532F"/>
<ellipse cx="309.451" cy="232.655" rx="5.0687" ry="5.06868" transform="rotate(-180 309.451 232.655)" fill="#E3532F"/>
<ellipse opacity="0.2" cx="294.244" cy="232.655" rx="5.0687" ry="5.06868" transform="rotate(-180 294.244 232.655)" fill="#E3532F"/>
<ellipse opacity="0.2" cx="279.041" cy="232.655" rx="5.0687" ry="5.06868" transform="rotate(-180 279.041 232.655)" fill="#E3532F"/>
<ellipse opacity="0.4" cx="263.83" cy="232.655" rx="5.0687" ry="5.06868" transform="rotate(-180 263.83 232.655)" fill="#E3532F"/>
<ellipse opacity="0.6" cx="248.627" cy="232.655" rx="5.0687" ry="5.06868" transform="rotate(-180 248.627 232.655)" fill="#E3532F"/>
<ellipse cx="233.423" cy="232.655" rx="5.0687" ry="5.06868" transform="rotate(-180 233.423 232.655)" fill="#E3532F"/>
<ellipse cx="218.213" cy="232.655" rx="5.0687" ry="5.06868" transform="rotate(-180 218.213 232.655)" fill="#E3532F"/>
<ellipse opacity="0.2" cx="203.009" cy="232.655" rx="5.0687" ry="5.06868" transform="rotate(-180 203.009 232.655)" fill="#E3532F"/>
<ellipse opacity="0.6" cx="187.798" cy="232.655" rx="5.0687" ry="5.06868" transform="rotate(-180 187.798 232.655)" fill="#E3532F"/>
<ellipse opacity="0.2" cx="355.072" cy="217.449" rx="5.0687" ry="5.06868" transform="rotate(-180 355.072 217.449)" fill="#E3532F"/>
<ellipse cx="339.865" cy="217.45" rx="5.0687" ry="5.06868" transform="rotate(-180 339.865 217.45)" fill="#E3532F"/>
<ellipse opacity="0.6" cx="324.662" cy="217.449" rx="5.0687" ry="5.06868" transform="rotate(-180 324.662 217.449)" fill="#E3532F"/>
<ellipse opacity="0.2" cx="309.451" cy="217.449" rx="5.0687" ry="5.06868" transform="rotate(-180 309.451 217.449)" fill="#E3532F"/>
<ellipse cx="294.244" cy="217.449" rx="5.0687" ry="5.06868" transform="rotate(-180 294.244 217.449)" fill="#E3532F"/>
<ellipse cx="263.83" cy="217.449" rx="5.0687" ry="5.06868" transform="rotate(-180 263.83 217.449)" fill="#E3532F"/>
<ellipse cx="248.627" cy="217.449" rx="5.0687" ry="5.06868" transform="rotate(-180 248.627 217.449)" fill="#E3532F"/>
<ellipse cx="233.423" cy="217.45" rx="5.0687" ry="5.06868" transform="rotate(-180 233.423 217.45)" fill="#E3532F"/>
<ellipse cx="218.213" cy="217.449" rx="5.0687" ry="5.06868" transform="rotate(-180 218.213 217.449)" fill="#E3532F"/>
<ellipse opacity="0.4" cx="203.009" cy="217.45" rx="5.0687" ry="5.06868" transform="rotate(-180 203.009 217.45)" fill="#E3532F"/>
<ellipse cx="187.798" cy="217.449" rx="5.0687" ry="5.06868" transform="rotate(-180 187.798 217.449)" fill="#E3532F"/>
<ellipse cx="355.072" cy="202.243" rx="5.0687" ry="5.06868" transform="rotate(-180 355.072 202.243)" fill="#E3532F"/>
<ellipse opacity="0.4" cx="339.865" cy="202.243" rx="5.0687" ry="5.06868" transform="rotate(-180 339.865 202.243)" fill="#E3532F"/>
<ellipse cx="324.662" cy="202.243" rx="5.0687" ry="5.06868" transform="rotate(-180 324.662 202.243)" fill="#E3532F"/>
<ellipse cx="309.451" cy="202.243" rx="5.0687" ry="5.06868" transform="rotate(-180 309.451 202.243)" fill="#E3532F"/>
<ellipse cx="294.244" cy="202.243" rx="5.0687" ry="5.06868" transform="rotate(-180 294.244 202.243)" fill="#E3532F"/>
<ellipse cx="279.041" cy="202.243" rx="5.0687" ry="5.06868" transform="rotate(-180 279.041 202.243)" fill="#E3532F"/>
<ellipse cx="263.83" cy="202.243" rx="5.0687" ry="5.06868" transform="rotate(-180 263.83 202.243)" fill="#E3532F"/>
<ellipse cx="248.627" cy="202.243" rx="5.0687" ry="5.06868" transform="rotate(-180 248.627 202.243)" fill="#E3532F"/>
<ellipse cx="233.423" cy="202.243" rx="5.0687" ry="5.06868" transform="rotate(-180 233.423 202.243)" fill="#E3532F"/>
<ellipse opacity="0.6" cx="218.213" cy="202.243" rx="5.0687" ry="5.06868" transform="rotate(-180 218.213 202.243)" fill="#E3532F"/>
<ellipse cx="203.009" cy="202.243" rx="5.0687" ry="5.06868" transform="rotate(-180 203.009 202.243)" fill="#E3532F"/>
<ellipse opacity="0.2" cx="355.072" cy="187.037" rx="5.0687" ry="5.06868" transform="rotate(-180 355.072 187.037)" fill="#E3532F"/>
<ellipse cx="339.865" cy="187.037" rx="5.0687" ry="5.06868" transform="rotate(-180 339.865 187.037)" fill="#E3532F"/>
<ellipse cx="324.662" cy="187.038" rx="5.0687" ry="5.06868" transform="rotate(-180 324.662 187.038)" fill="#E3532F"/>
<ellipse cx="309.451" cy="187.037" rx="5.0687" ry="5.06868" transform="rotate(-180 309.451 187.037)" fill="#E3532F"/>
<ellipse cx="294.244" cy="187.038" rx="5.0687" ry="5.06868" transform="rotate(-180 294.244 187.038)" fill="#E3532F"/>
<ellipse opacity="0.4" cx="279.041" cy="187.038" rx="5.0687" ry="5.06868" transform="rotate(-180 279.041 187.038)" fill="#E3532F"/>
<ellipse cx="263.83" cy="187.038" rx="5.0687" ry="5.06868" transform="rotate(-180 263.83 187.038)" fill="#E3532F"/>
<ellipse cx="248.627" cy="187.038" rx="5.0687" ry="5.06868" transform="rotate(-180 248.627 187.038)" fill="#E3532F"/>
<ellipse cx="218.213" cy="187.038" rx="5.0687" ry="5.06868" transform="rotate(-180 218.213 187.038)" fill="#E3532F"/>
<ellipse opacity="0.2" cx="203.009" cy="187.037" rx="5.0687" ry="5.06868" transform="rotate(-180 203.009 187.037)" fill="#E3532F"/>
<ellipse cx="187.798" cy="187.038" rx="5.0687" ry="5.06868" transform="rotate(-180 187.798 187.038)" fill="#E3532F"/>
<ellipse cx="339.865" cy="171.831" rx="5.0687" ry="5.06868" transform="rotate(-180 339.865 171.831)" fill="#E3532F"/>
<ellipse opacity="0.2" cx="324.662" cy="171.832" rx="5.0687" ry="5.06868" transform="rotate(-180 324.662 171.832)" fill="#E3532F"/>
<ellipse cx="309.451" cy="171.831" rx="5.0687" ry="5.06868" transform="rotate(-180 309.451 171.831)" fill="#E3532F"/>
<ellipse opacity="0.4" cx="294.244" cy="171.831" rx="5.0687" ry="5.06868" transform="rotate(-180 294.244 171.831)" fill="#E3532F"/>
<ellipse cx="279.041" cy="171.831" rx="5.0687" ry="5.06868" transform="rotate(-180 279.041 171.831)" fill="#E3532F"/>
<ellipse opacity="0.6" cx="263.83" cy="171.831" rx="5.0687" ry="5.06868" transform="rotate(-180 263.83 171.831)" fill="#E3532F"/>
<ellipse opacity="0.2" cx="248.627" cy="171.831" rx="5.0687" ry="5.06868" transform="rotate(-180 248.627 171.831)" fill="#E3532F"/>
<ellipse cx="233.423" cy="171.831" rx="5.0687" ry="5.06868" transform="rotate(-180 233.423 171.831)" fill="#E3532F"/>
<ellipse cx="218.213" cy="171.831" rx="5.0687" ry="5.06868" transform="rotate(-180 218.213 171.831)" fill="#E3532F"/>
<ellipse opacity="0.4" cx="187.798" cy="171.831" rx="5.0687" ry="5.06868" transform="rotate(-180 187.798 171.831)" fill="#E3532F"/>
<ellipse opacity="0.2" cx="157.134" cy="323.892" rx="5.0687" ry="5.06868" transform="rotate(-180 157.134 323.892)" fill="#E3532F"/>
<ellipse opacity="0.1" cx="141.923" cy="323.892" rx="5.0687" ry="5.06868" transform="rotate(-180 141.923 323.892)" fill="#E3532F"/>
<ellipse opacity="0.05" cx="126.72" cy="323.892" rx="5.0687" ry="5.06868" transform="rotate(-180 126.72 323.892)" fill="#E3532F"/>
<ellipse opacity="0.1" cx="111.513" cy="323.892" rx="5.0687" ry="5.06868" transform="rotate(-180 111.513 323.892)" fill="#E3532F"/>
<ellipse opacity="0.4" cx="96.3102" cy="323.892" rx="5.0687" ry="5.06868" transform="rotate(-180 96.3102 323.892)" fill="#E3532F"/>
<ellipse opacity="0.2" cx="81.1032" cy="323.892" rx="5.0687" ry="5.06868" transform="rotate(-180 81.1032 323.892)" fill="#E3532F"/>
<ellipse opacity="0.05" cx="65.8922" cy="323.892" rx="5.0687" ry="5.06868" transform="rotate(-180 65.8922 323.892)" fill="#E3532F"/>
<ellipse opacity="0.1" cx="50.6891" cy="323.892" rx="5.0687" ry="5.06868" transform="rotate(-180 50.6891 323.892)" fill="#E3532F"/>
<ellipse opacity="0.05" cx="35.486" cy="323.892" rx="5.0687" ry="5.06868" transform="rotate(-180 35.486 323.892)" fill="#E3532F"/>
<ellipse opacity="0.1" cx="172.341" cy="308.685" rx="5.0687" ry="5.06868" transform="rotate(-180 172.341 308.685)" fill="#E3532F"/>
<ellipse opacity="0.05" cx="157.134" cy="308.686" rx="5.0687" ry="5.06868" transform="rotate(-180 157.134 308.686)" fill="#E3532F"/>
<ellipse opacity="0.4" cx="141.923" cy="308.685" rx="5.0687" ry="5.06868" transform="rotate(-180 141.923 308.685)" fill="#E3532F"/>
<ellipse opacity="0.1" cx="126.72" cy="308.686" rx="5.0687" ry="5.06868" transform="rotate(-180 126.72 308.686)" fill="#E3532F"/>
<ellipse opacity="0.2" cx="111.513" cy="308.685" rx="5.0687" ry="5.06868" transform="rotate(-180 111.513 308.685)" fill="#E3532F"/>
<ellipse opacity="0.2" cx="81.1032" cy="308.686" rx="5.0687" ry="5.06868" transform="rotate(-180 81.1032 308.686)" fill="#E3532F"/>
<ellipse opacity="0.2" cx="65.8922" cy="308.686" rx="5.0687" ry="5.06868" transform="rotate(-180 65.8922 308.686)" fill="#E3532F"/>
<ellipse opacity="0.6" cx="50.6891" cy="308.686" rx="5.0687" ry="5.06868" transform="rotate(-180 50.6891 308.686)" fill="#E3532F"/>
<ellipse opacity="0.1" cx="35.486" cy="308.686" rx="5.0687" ry="5.06868" transform="rotate(-180 35.486 308.686)" fill="#E3532F"/>
<ellipse opacity="0.1" cx="20.279" cy="308.686" rx="5.0687" ry="5.06868" transform="rotate(-180 20.279 308.686)" fill="#E3532F"/>
<ellipse opacity="0.4" cx="172.341" cy="293.48" rx="5.0687" ry="5.06868" transform="rotate(-180 172.341 293.48)" fill="#E3532F"/>
<ellipse opacity="0.1" cx="157.134" cy="293.479" rx="5.0687" ry="5.06868" transform="rotate(-180 157.134 293.479)" fill="#E3532F"/>
<ellipse opacity="0.05" cx="141.923" cy="293.48" rx="5.0687" ry="5.06868" transform="rotate(-180 141.923 293.48)" fill="#E3532F"/>
<ellipse opacity="0.2" cx="126.72" cy="293.479" rx="5.0687" ry="5.06868" transform="rotate(-180 126.72 293.479)" fill="#E3532F"/>
<ellipse opacity="0.6" cx="111.513" cy="293.48" rx="5.0687" ry="5.06868" transform="rotate(-180 111.513 293.48)" fill="#E3532F"/>
<ellipse opacity="0.2" cx="96.3102" cy="293.479" rx="5.0687" ry="5.06868" transform="rotate(-180 96.3102 293.479)" fill="#E3532F"/>
<ellipse opacity="0.1" cx="81.1032" cy="293.479" rx="5.0687" ry="5.06868" transform="rotate(-180 81.1032 293.479)" fill="#E3532F"/>
<ellipse opacity="0.2" cx="65.8922" cy="293.479" rx="5.0687" ry="5.06868" transform="rotate(-180 65.8922 293.479)" fill="#E3532F"/>
<ellipse opacity="0.05" cx="50.6891" cy="293.479" rx="5.0687" ry="5.06868" transform="rotate(-180 50.6891 293.479)" fill="#E3532F"/>
<ellipse opacity="0.4" cx="35.486" cy="293.48" rx="5.0687" ry="5.06868" transform="rotate(-180 35.486 293.48)" fill="#E3532F"/>
<ellipse opacity="0.1" cx="20.279" cy="293.479" rx="5.0687" ry="5.06868" transform="rotate(-180 20.279 293.479)" fill="#E3532F"/>
<ellipse opacity="0.4" cx="5.07192" cy="293.48" rx="5.0687" ry="5.06868" transform="rotate(-180 5.07192 293.48)" fill="#E3532F"/>
<ellipse opacity="0.05" cx="172.341" cy="278.274" rx="5.0687" ry="5.06868" transform="rotate(-180 172.341 278.274)" fill="#E3532F"/>
<ellipse opacity="0.6" cx="157.134" cy="278.273" rx="5.0687" ry="5.06868" transform="rotate(-180 157.134 278.273)" fill="#E3532F"/>
<ellipse opacity="0.2" cx="141.923" cy="278.274" rx="5.0687" ry="5.06868" transform="rotate(-180 141.923 278.274)" fill="#E3532F"/>
<ellipse opacity="0.4" cx="126.72" cy="278.273" rx="5.0687" ry="5.06868" transform="rotate(-180 126.72 278.273)" fill="#E3532F"/>
<ellipse opacity="0.6" cx="111.513" cy="278.274" rx="5.0687" ry="5.06868" transform="rotate(-180 111.513 278.274)" fill="#E3532F"/>
<ellipse opacity="0.2" cx="96.3102" cy="278.273" rx="5.0687" ry="5.06868" transform="rotate(-180 96.3102 278.273)" fill="#E3532F"/>
<ellipse cx="81.1032" cy="278.273" rx="5.0687" ry="5.06868" transform="rotate(-180 81.1032 278.273)" fill="#E3532F"/>
<ellipse opacity="0.2" cx="65.8922" cy="278.273" rx="5.0687" ry="5.06868" transform="rotate(-180 65.8922 278.273)" fill="#E3532F"/>
<ellipse opacity="0.2" cx="50.6891" cy="278.273" rx="5.0687" ry="5.06868" transform="rotate(-180 50.6891 278.273)" fill="#E3532F"/>
<ellipse cx="35.486" cy="278.273" rx="5.0687" ry="5.06868" transform="rotate(-180 35.486 278.273)" fill="#E3532F"/>
<ellipse opacity="0.2" cx="20.279" cy="278.273" rx="5.0687" ry="5.06868" transform="rotate(-180 20.279 278.273)" fill="#E3532F"/>
<ellipse opacity="0.2" cx="5.07192" cy="278.274" rx="5.0687" ry="5.06868" transform="rotate(-180 5.07192 278.274)" fill="#E3532F"/>
<ellipse opacity="0.2" cx="172.341" cy="263.068" rx="5.0687" ry="5.06868" transform="rotate(-180 172.341 263.068)" fill="#E3532F"/>
<ellipse opacity="0.2" cx="157.134" cy="263.068" rx="5.0687" ry="5.06868" transform="rotate(-180 157.134 263.068)" fill="#E3532F"/>
<ellipse cx="141.923" cy="263.068" rx="5.0687" ry="5.06868" transform="rotate(-180 141.923 263.068)" fill="#E3532F"/>
<ellipse opacity="0.2" cx="126.72" cy="263.068" rx="5.0687" ry="5.06868" transform="rotate(-180 126.72 263.068)" fill="#E3532F"/>
<ellipse opacity="0.6" cx="111.513" cy="263.068" rx="5.0687" ry="5.06868" transform="rotate(-180 111.513 263.068)" fill="#E3532F"/>
<ellipse opacity="0.2" cx="96.3102" cy="263.068" rx="5.0687" ry="5.06868" transform="rotate(-180 96.3102 263.068)" fill="#E3532F"/>
<ellipse cx="81.1032" cy="263.068" rx="5.0687" ry="5.06868" transform="rotate(-180 81.1032 263.068)" fill="#E3532F"/>
<ellipse opacity="0.2" cx="65.8922" cy="263.068" rx="5.0687" ry="5.06868" transform="rotate(-180 65.8922 263.068)" fill="#E3532F"/>
<ellipse opacity="0.6" cx="50.6891" cy="263.068" rx="5.0687" ry="5.06868" transform="rotate(-180 50.6891 263.068)" fill="#E3532F"/>
<ellipse opacity="0.2" cx="35.486" cy="263.068" rx="5.0687" ry="5.06868" transform="rotate(-180 35.486 263.068)" fill="#E3532F"/>
<ellipse cx="20.279" cy="263.068" rx="5.0687" ry="5.06868" transform="rotate(-180 20.279 263.068)" fill="#E3532F"/>
<ellipse opacity="0.2" cx="172.341" cy="247.861" rx="5.0687" ry="5.06868" transform="rotate(-180 172.341 247.861)" fill="#E3532F"/>
<ellipse opacity="0.2" cx="157.134" cy="247.862" rx="5.0687" ry="5.06868" transform="rotate(-180 157.134 247.862)" fill="#E3532F"/>
<ellipse opacity="0.2" cx="126.72" cy="247.862" rx="5.0687" ry="5.06868" transform="rotate(-180 126.72 247.862)" fill="#E3532F"/>
<ellipse cx="111.513" cy="247.861" rx="5.0687" ry="5.06868" transform="rotate(-180 111.513 247.861)" fill="#E3532F"/>
<ellipse opacity="0.6" cx="96.3102" cy="247.862" rx="5.0687" ry="5.06868" transform="rotate(-180 96.3102 247.862)" fill="#E3532F"/>
<ellipse opacity="0.2" cx="81.1032" cy="247.862" rx="5.0687" ry="5.06868" transform="rotate(-180 81.1032 247.862)" fill="#E3532F"/>
<ellipse opacity="0.6" cx="65.8922" cy="247.862" rx="5.0687" ry="5.06868" transform="rotate(-180 65.8922 247.862)" fill="#E3532F"/>
<ellipse cx="50.6891" cy="247.862" rx="5.0687" ry="5.06868" transform="rotate(-180 50.6891 247.862)" fill="#E3532F"/>
<ellipse opacity="0.2" cx="35.486" cy="247.861" rx="5.0687" ry="5.06868" transform="rotate(-180 35.486 247.861)" fill="#E3532F"/>
<ellipse opacity="0.6" cx="20.279" cy="247.862" rx="5.0687" ry="5.06868" transform="rotate(-180 20.279 247.862)" fill="#E3532F"/>
<ellipse opacity="0.2" cx="5.07192" cy="247.861" rx="5.0687" ry="5.06868" transform="rotate(-180 5.07192 247.861)" fill="#E3532F"/>
<ellipse cx="172.341" cy="232.655" rx="5.0687" ry="5.06868" transform="rotate(-180 172.341 232.655)" fill="#E3532F"/>
<ellipse cx="157.134" cy="232.655" rx="5.0687" ry="5.06868" transform="rotate(-180 157.134 232.655)" fill="#E3532F"/>
<ellipse cx="141.923" cy="232.655" rx="5.0687" ry="5.06868" transform="rotate(-180 141.923 232.655)" fill="#E3532F"/>
<ellipse opacity="0.6" cx="126.72" cy="232.655" rx="5.0687" ry="5.06868" transform="rotate(-180 126.72 232.655)" fill="#E3532F"/>
<ellipse opacity="0.2" cx="111.513" cy="232.655" rx="5.0687" ry="5.06868" transform="rotate(-180 111.513 232.655)" fill="#E3532F"/>
<ellipse cx="96.3102" cy="232.655" rx="5.0687" ry="5.06868" transform="rotate(-180 96.3102 232.655)" fill="#E3532F"/>
<ellipse opacity="0.4" cx="81.1032" cy="232.655" rx="5.0687" ry="5.06868" transform="rotate(-180 81.1032 232.655)" fill="#E3532F"/>
<ellipse cx="65.8922" cy="232.655" rx="5.0687" ry="5.06868" transform="rotate(-180 65.8922 232.655)" fill="#E3532F"/>
<ellipse opacity="0.2" cx="50.6891" cy="232.655" rx="5.0687" ry="5.06868" transform="rotate(-180 50.6891 232.655)" fill="#E3532F"/>
<ellipse cx="35.486" cy="232.655" rx="5.0687" ry="5.06868" transform="rotate(-180 35.486 232.655)" fill="#E3532F"/>
<ellipse opacity="0.6" cx="20.279" cy="232.655" rx="5.0687" ry="5.06868" transform="rotate(-180 20.279 232.655)" fill="#E3532F"/>
<ellipse opacity="0.6" cx="5.07192" cy="232.655" rx="5.0687" ry="5.06868" transform="rotate(-180 5.07192 232.655)" fill="#E3532F"/>
<ellipse opacity="0.2" cx="172.341" cy="217.45" rx="5.0687" ry="5.06868" transform="rotate(-180 172.341 217.45)" fill="#E3532F"/>
<ellipse cx="157.134" cy="217.449" rx="5.0687" ry="5.06868" transform="rotate(-180 157.134 217.449)" fill="#E3532F"/>
<ellipse opacity="0.6" cx="141.923" cy="217.45" rx="5.0687" ry="5.06868" transform="rotate(-180 141.923 217.45)" fill="#E3532F"/>
<ellipse cx="126.72" cy="217.449" rx="5.0687" ry="5.06868" transform="rotate(-180 126.72 217.449)" fill="#E3532F"/>
<ellipse cx="111.513" cy="217.45" rx="5.0687" ry="5.06868" transform="rotate(-180 111.513 217.45)" fill="#E3532F"/>
<ellipse cx="81.1032" cy="217.449" rx="5.0687" ry="5.06868" transform="rotate(-180 81.1032 217.449)" fill="#E3532F"/>
<ellipse cx="65.8922" cy="217.449" rx="5.0687" ry="5.06868" transform="rotate(-180 65.8922 217.449)" fill="#E3532F"/>
<ellipse cx="50.6891" cy="217.449" rx="5.0687" ry="5.06868" transform="rotate(-180 50.6891 217.449)" fill="#E3532F"/>
<ellipse cx="35.486" cy="217.449" rx="5.0687" ry="5.06868" transform="rotate(-180 35.486 217.449)" fill="#E3532F"/>
<ellipse opacity="0.4" cx="20.279" cy="217.449" rx="5.0687" ry="5.06868" transform="rotate(-180 20.279 217.449)" fill="#E3532F"/>
<ellipse cx="5.07192" cy="217.45" rx="5.0687" ry="5.06868" transform="rotate(-180 5.07192 217.45)" fill="#E3532F"/>
<ellipse cx="172.341" cy="202.243" rx="5.0687" ry="5.06868" transform="rotate(-180 172.341 202.243)" fill="#E3532F"/>
<ellipse opacity="0.4" cx="157.134" cy="202.243" rx="5.0687" ry="5.06868" transform="rotate(-180 157.134 202.243)" fill="#E3532F"/>
<ellipse cx="141.923" cy="202.243" rx="5.0687" ry="5.06868" transform="rotate(-180 141.923 202.243)" fill="#E3532F"/>
<ellipse cx="126.72" cy="202.243" rx="5.0687" ry="5.06868" transform="rotate(-180 126.72 202.243)" fill="#E3532F"/>
<ellipse cx="111.513" cy="202.243" rx="5.0687" ry="5.06868" transform="rotate(-180 111.513 202.243)" fill="#E3532F"/>
<ellipse cx="96.3102" cy="202.243" rx="5.0687" ry="5.06868" transform="rotate(-180 96.3102 202.243)" fill="#E3532F"/>
<ellipse cx="81.1032" cy="202.243" rx="5.0687" ry="5.06868" transform="rotate(-180 81.1032 202.243)" fill="#E3532F"/>
<ellipse cx="65.8922" cy="202.243" rx="5.0687" ry="5.06868" transform="rotate(-180 65.8922 202.243)" fill="#E3532F"/>
<ellipse cx="50.6891" cy="202.243" rx="5.0687" ry="5.06868" transform="rotate(-180 50.6891 202.243)" fill="#E3532F"/>
<ellipse opacity="0.6" cx="35.486" cy="202.243" rx="5.0687" ry="5.06868" transform="rotate(-180 35.486 202.243)" fill="#E3532F"/>
<ellipse cx="20.279" cy="202.243" rx="5.0687" ry="5.06868" transform="rotate(-180 20.279 202.243)" fill="#E3532F"/>
<ellipse opacity="0.2" cx="172.341" cy="187.037" rx="5.0687" ry="5.06868" transform="rotate(-180 172.341 187.037)" fill="#E3532F"/>
<ellipse cx="157.134" cy="187.038" rx="5.0687" ry="5.06868" transform="rotate(-180 157.134 187.038)" fill="#E3532F"/>
<ellipse cx="141.923" cy="187.037" rx="5.0687" ry="5.06868" transform="rotate(-180 141.923 187.037)" fill="#E3532F"/>
<ellipse cx="126.72" cy="187.038" rx="5.0687" ry="5.06868" transform="rotate(-180 126.72 187.038)" fill="#E3532F"/>
<ellipse cx="111.513" cy="187.037" rx="5.0687" ry="5.06868" transform="rotate(-180 111.513 187.037)" fill="#E3532F"/>
<ellipse opacity="0.4" cx="96.3102" cy="187.038" rx="5.0687" ry="5.06868" transform="rotate(-180 96.3102 187.038)" fill="#E3532F"/>
<ellipse cx="81.1032" cy="187.038" rx="5.0687" ry="5.06868" transform="rotate(-180 81.1032 187.038)" fill="#E3532F"/>
<ellipse cx="65.8922" cy="187.038" rx="5.0687" ry="5.06868" transform="rotate(-180 65.8922 187.038)" fill="#E3532F"/>
<ellipse cx="35.486" cy="187.037" rx="5.0687" ry="5.06868" transform="rotate(-180 35.486 187.037)" fill="#E3532F"/>
<ellipse opacity="0.2" cx="20.279" cy="187.038" rx="5.0687" ry="5.06868" transform="rotate(-180 20.279 187.038)" fill="#E3532F"/>
<ellipse cx="5.07192" cy="187.037" rx="5.0687" ry="5.06868" transform="rotate(-180 5.07192 187.037)" fill="#E3532F"/>
<ellipse cx="157.134" cy="171.831" rx="5.0687" ry="5.06868" transform="rotate(-180 157.134 171.831)" fill="#E3532F"/>
<ellipse opacity="0.2" cx="141.923" cy="171.831" rx="5.0687" ry="5.06868" transform="rotate(-180 141.923 171.831)" fill="#E3532F"/>
<ellipse cx="126.72" cy="171.832" rx="5.0687" ry="5.06868" transform="rotate(-180 126.72 171.832)" fill="#E3532F"/>
<ellipse opacity="0.4" cx="111.513" cy="171.831" rx="5.0687" ry="5.06868" transform="rotate(-180 111.513 171.831)" fill="#E3532F"/>
<ellipse cx="96.3102" cy="171.831" rx="5.0687" ry="5.06868" transform="rotate(-180 96.3102 171.831)" fill="#E3532F"/>
<ellipse opacity="0.6" cx="81.1032" cy="171.831" rx="5.0687" ry="5.06868" transform="rotate(-180 81.1032 171.831)" fill="#E3532F"/>
<ellipse opacity="0.2" cx="65.8922" cy="171.831" rx="5.0687" ry="5.06868" transform="rotate(-180 65.8922 171.831)" fill="#E3532F"/>
<ellipse cx="50.6891" cy="171.831" rx="5.0687" ry="5.06868" transform="rotate(-180 50.6891 171.831)" fill="#E3532F"/>
<ellipse cx="35.486" cy="171.831" rx="5.0687" ry="5.06868" transform="rotate(-180 35.486 171.831)" fill="#E3532F"/>
<ellipse opacity="0.4" cx="5.07192" cy="171.831" rx="5.0687" ry="5.06868" transform="rotate(-180 5.07192 171.831)" fill="#E3532F"/>
<ellipse opacity="0.2" cx="203.01" cy="5.06868" rx="5.0687" ry="5.06868" fill="#E3532F"/>
<ellipse cx="218.213" cy="5.06868" rx="5.0687" ry="5.06868" fill="#E3532F"/>
<ellipse opacity="0.6" cx="233.42" cy="5.06868" rx="5.0687" ry="5.06868" fill="#E3532F"/>
<ellipse cx="248.623" cy="5.06868" rx="5.0687" ry="5.06868" fill="#E3532F"/>
<ellipse opacity="0.4" cx="263.834" cy="5.06868" rx="5.0687" ry="5.06868" fill="#E3532F"/>
<ellipse cx="279.037" cy="5.06868" rx="5.0687" ry="5.06868" fill="#E3532F"/>
<ellipse cx="294.248" cy="5.06868" rx="5.0687" ry="5.06868" fill="#E3532F"/>
<ellipse cx="309.452" cy="5.06868" rx="5.0687" ry="5.06868" fill="#E3532F"/>
<ellipse opacity="0.4" cx="324.662" cy="5.06868" rx="5.0687" ry="5.06868" fill="#E3532F"/>
<ellipse cx="187.803" cy="20.2745" rx="5.0687" ry="5.06868" fill="#E3532F"/>
<ellipse cx="203.01" cy="20.2747" rx="5.0687" ry="5.06868" fill="#E3532F"/>
<ellipse opacity="0.4" cx="218.213" cy="20.2745" rx="5.0687" ry="5.06868" fill="#E3532F"/>
<ellipse cx="233.42" cy="20.2745" rx="5.0687" ry="5.06868" fill="#E3532F"/>
<ellipse cx="248.623" cy="20.2745" rx="5.0687" ry="5.06868" fill="#E3532F"/>
<ellipse cx="279.037" cy="20.2745" rx="5.0687" ry="5.06868" fill="#E3532F"/>
<ellipse opacity="0.2" cx="294.248" cy="20.2745" rx="5.0687" ry="5.06868" fill="#E3532F"/>
<ellipse opacity="0.6" cx="309.452" cy="20.2745" rx="5.0687" ry="5.06868" fill="#E3532F"/>
<ellipse cx="324.662" cy="20.2745" rx="5.0687" ry="5.06868" fill="#E3532F"/>
<ellipse cx="339.866" cy="20.2745" rx="5.0687" ry="5.06868" fill="#E3532F"/>
<ellipse opacity="0.4" cx="187.803" cy="35.4808" rx="5.0687" ry="5.06868" fill="#E3532F"/>
<ellipse cx="203.01" cy="35.4808" rx="5.0687" ry="5.06868" fill="#E3532F"/>
<ellipse cx="218.213" cy="35.481" rx="5.0687" ry="5.06868" fill="#E3532F"/>
<ellipse cx="233.42" cy="35.481" rx="5.0687" ry="5.06868" fill="#E3532F"/>
<ellipse opacity="0.6" cx="248.623" cy="35.481" rx="5.0687" ry="5.06868" fill="#E3532F"/>
<ellipse opacity="0.2" cx="263.834" cy="35.4808" rx="5.0687" ry="5.06868" fill="#E3532F"/>
<ellipse cx="279.037" cy="35.481" rx="5.0687" ry="5.06868" fill="#E3532F"/>
<ellipse cx="294.248" cy="35.4808" rx="5.0687" ry="5.06868" fill="#E3532F"/>
<ellipse cx="309.452" cy="35.4808" rx="5.0687" ry="5.06868" fill="#E3532F"/>
<ellipse opacity="0.4" cx="324.662" cy="35.4808" rx="5.0687" ry="5.06868" fill="#E3532F"/>
<ellipse cx="339.866" cy="35.4813" rx="5.0687" ry="5.06868" fill="#E3532F"/>
<ellipse opacity="0.4" cx="355.069" cy="35.481" rx="5.0687" ry="5.06868" fill="#E3532F"/>
<ellipse cx="187.803" cy="50.6868" rx="5.0687" ry="5.06868" fill="#E3532F"/>
<ellipse opacity="0.6" cx="203.01" cy="50.6868" rx="5.0687" ry="5.06868" fill="#E3532F"/>
<ellipse cx="218.213" cy="50.6868" rx="5.0687" ry="5.06868" fill="#E3532F"/>
<ellipse opacity="0.4" cx="233.42" cy="50.6868" rx="5.0687" ry="5.06868" fill="#E3532F"/>
<ellipse cx="248.623" cy="50.6868" rx="5.0687" ry="5.06868" fill="#E3532F"/>
<ellipse cx="263.834" cy="50.6868" rx="5.0687" ry="5.06868" fill="#E3532F"/>
<ellipse cx="279.037" cy="50.6868" rx="5.0687" ry="5.06868" fill="#E3532F"/>
<ellipse opacity="0.2" cx="294.248" cy="50.6868" rx="5.0687" ry="5.06868" fill="#E3532F"/>
<ellipse cx="309.452" cy="50.6868" rx="5.0687" ry="5.06868" fill="#E3532F"/>
<ellipse cx="324.662" cy="50.6868" rx="5.0687" ry="5.06868" fill="#E3532F"/>
<ellipse cx="339.866" cy="50.6868" rx="5.0687" ry="5.06868" fill="#E3532F"/>
<ellipse cx="355.069" cy="50.6868" rx="5.0687" ry="5.06868" fill="#E3532F"/>
<ellipse opacity="0.2" cx="187.803" cy="65.8929" rx="5.0687" ry="5.06868" fill="#E3532F"/>
<ellipse cx="203.01" cy="65.8929" rx="5.0687" ry="5.06868" fill="#E3532F"/>
<ellipse cx="218.213" cy="65.8929" rx="5.0687" ry="5.06868" fill="#E3532F"/>
<ellipse cx="233.42" cy="65.8929" rx="5.0687" ry="5.06868" fill="#E3532F"/>
<ellipse opacity="0.6" cx="248.623" cy="65.8929" rx="5.0687" ry="5.06868" fill="#E3532F"/>
<ellipse opacity="0.2" cx="263.834" cy="65.8929" rx="5.0687" ry="5.06868" fill="#E3532F"/>
<ellipse cx="279.037" cy="65.8929" rx="5.0687" ry="5.06868" fill="#E3532F"/>
<ellipse cx="294.248" cy="65.8929" rx="5.0687" ry="5.06868" fill="#E3532F"/>
<ellipse cx="309.452" cy="65.8929" rx="5.0687" ry="5.06868" fill="#E3532F"/>
<ellipse opacity="0.2" cx="324.662" cy="65.8929" rx="5.0687" ry="5.06868" fill="#E3532F"/>
<ellipse cx="339.866" cy="65.8929" rx="5.0687" ry="5.06868" fill="#E3532F"/>
<ellipse cx="187.803" cy="81.0987" rx="5.0687" ry="5.06868" fill="#E3532F"/>
<ellipse cx="203.01" cy="81.099" rx="5.0687" ry="5.06868" fill="#E3532F"/>
<ellipse cx="233.42" cy="81.0987" rx="5.0687" ry="5.06868" fill="#E3532F"/>
<ellipse cx="248.623" cy="81.0987" rx="5.0687" ry="5.06868" fill="#E3532F"/>
<ellipse cx="263.834" cy="81.099" rx="5.0687" ry="5.06868" fill="#E3532F"/>
<ellipse cx="279.037" cy="81.0987" rx="5.0687" ry="5.06868" fill="#E3532F"/>
<ellipse cx="294.248" cy="81.0987" rx="5.0687" ry="5.06868" fill="#E3532F"/>
<ellipse cx="309.452" cy="81.0987" rx="5.0687" ry="5.06868" fill="#E3532F"/>
<ellipse cx="324.662" cy="81.0987" rx="5.0687" ry="5.06868" fill="#E3532F"/>
<ellipse opacity="0.6" cx="339.866" cy="81.0987" rx="5.0687" ry="5.06868" fill="#E3532F"/>
<ellipse opacity="0.2" cx="355.069" cy="81.0987" rx="5.0687" ry="5.06868" fill="#E3532F"/>
<ellipse cx="187.803" cy="96.305" rx="5.0687" ry="5.06868" fill="#E3532F"/>
<ellipse cx="203.01" cy="96.305" rx="5.0687" ry="5.06868" fill="#E3532F"/>
<ellipse cx="218.213" cy="96.3045" rx="5.0687" ry="5.06868" fill="#E3532F"/>
<ellipse cx="233.42" cy="96.3045" rx="5.0687" ry="5.06868" fill="#E3532F"/>
<ellipse opacity="0.2" cx="248.623" cy="96.3045" rx="5.0687" ry="5.06868" fill="#E3532F"/>
<ellipse cx="263.834" cy="96.305" rx="5.0687" ry="5.06868" fill="#E3532F"/>
<ellipse opacity="0.4" cx="279.037" cy="96.3045" rx="5.0687" ry="5.06868" fill="#E3532F"/>
<ellipse cx="294.248" cy="96.305" rx="5.0687" ry="5.06868" fill="#E3532F"/>
<ellipse cx="309.452" cy="96.305" rx="5.0687" ry="5.06868" fill="#E3532F"/>
<ellipse cx="324.662" cy="96.305" rx="5.0687" ry="5.06868" fill="#E3532F"/>
<ellipse cx="339.866" cy="96.3055" rx="5.0687" ry="5.06868" fill="#E3532F"/>
<ellipse opacity="0.6" cx="355.069" cy="96.3053" rx="5.0687" ry="5.06868" fill="#E3532F"/>
<ellipse opacity="0.2" cx="187.803" cy="111.511" rx="5.0687" ry="5.06868" fill="#E3532F"/>
<ellipse cx="203.01" cy="111.511" rx="5.0687" ry="5.06868" fill="#E3532F"/>
<ellipse opacity="0.6" cx="218.213" cy="111.511" rx="5.0687" ry="5.06868" fill="#E3532F"/>
<ellipse cx="233.42" cy="111.511" rx="5.0687" ry="5.06868" fill="#E3532F"/>
<ellipse cx="248.623" cy="111.511" rx="5.0687" ry="5.06868" fill="#E3532F"/>
<ellipse cx="279.037" cy="111.511" rx="5.0687" ry="5.06868" fill="#E3532F"/>
<ellipse cx="294.248" cy="111.511" rx="5.0687" ry="5.06868" fill="#E3532F"/>
<ellipse cx="309.452" cy="111.511" rx="5.0687" ry="5.06868" fill="#E3532F"/>
<ellipse cx="324.662" cy="111.511" rx="5.0687" ry="5.06868" fill="#E3532F"/>
<ellipse opacity="0.4" cx="339.866" cy="111.511" rx="5.0687" ry="5.06868" fill="#E3532F"/>
<ellipse cx="355.069" cy="111.511" rx="5.0687" ry="5.06868" fill="#E3532F"/>
<ellipse cx="187.803" cy="126.717" rx="5.0687" ry="5.06868" fill="#E3532F"/>
<ellipse opacity="0.4" cx="203.01" cy="126.717" rx="5.0687" ry="5.06868" fill="#E3532F"/>
<ellipse cx="218.213" cy="126.717" rx="5.0687" ry="5.06868" fill="#E3532F"/>
<ellipse cx="233.42" cy="126.717" rx="5.0687" ry="5.06868" fill="#E3532F"/>
<ellipse cx="248.623" cy="126.717" rx="5.0687" ry="5.06868" fill="#E3532F"/>
<ellipse cx="263.834" cy="126.717" rx="5.0687" ry="5.06868" fill="#E3532F"/>
<ellipse cx="279.037" cy="126.717" rx="5.0687" ry="5.06868" fill="#E3532F"/>
<ellipse cx="294.248" cy="126.717" rx="5.0687" ry="5.06868" fill="#E3532F"/>
<ellipse cx="309.452" cy="126.717" rx="5.0687" ry="5.06868" fill="#E3532F"/>
<ellipse opacity="0.6" cx="324.662" cy="126.717" rx="5.0687" ry="5.06868" fill="#E3532F"/>
<ellipse cx="339.866" cy="126.717" rx="5.0687" ry="5.06868" fill="#E3532F"/>
<ellipse opacity="0.2" cx="187.803" cy="141.923" rx="5.0687" ry="5.06868" fill="#E3532F"/>
<ellipse cx="203.01" cy="141.923" rx="5.0687" ry="5.06868" fill="#E3532F"/>
<ellipse cx="218.213" cy="141.923" rx="5.0687" ry="5.06868" fill="#E3532F"/>
<ellipse cx="233.42" cy="141.923" rx="5.0687" ry="5.06868" fill="#E3532F"/>
<ellipse cx="248.623" cy="141.923" rx="5.0687" ry="5.06868" fill="#E3532F"/>
<ellipse opacity="0.4" cx="263.834" cy="141.923" rx="5.0687" ry="5.06868" fill="#E3532F"/>
<ellipse cx="279.037" cy="141.923" rx="5.0687" ry="5.06868" fill="#E3532F"/>
<ellipse cx="294.248" cy="141.923" rx="5.0687" ry="5.06868" fill="#E3532F"/>
<ellipse cx="324.662" cy="141.923" rx="5.0687" ry="5.06868" fill="#E3532F"/>
<ellipse opacity="0.2" cx="339.866" cy="141.923" rx="5.0687" ry="5.06868" fill="#E3532F"/>
<ellipse cx="355.069" cy="141.923" rx="5.0687" ry="5.06868" fill="#E3532F"/>
<ellipse cx="203.01" cy="157.129" rx="5.0687" ry="5.06868" fill="#E3532F"/>
<ellipse opacity="0.2" cx="218.213" cy="157.129" rx="5.0687" ry="5.06868" fill="#E3532F"/>
<ellipse cx="233.42" cy="157.129" rx="5.0687" ry="5.06868" fill="#E3532F"/>
<ellipse opacity="0.4" cx="248.623" cy="157.13" rx="5.0687" ry="5.06868" fill="#E3532F"/>
<ellipse cx="263.834" cy="157.129" rx="5.0687" ry="5.06868" fill="#E3532F"/>
<ellipse opacity="0.6" cx="279.037" cy="157.13" rx="5.0687" ry="5.06868" fill="#E3532F"/>
<ellipse opacity="0.2" cx="294.248" cy="157.129" rx="5.0687" ry="5.06868" fill="#E3532F"/>
<ellipse cx="309.452" cy="157.129" rx="5.0687" ry="5.06868" fill="#E3532F"/>
<ellipse cx="324.662" cy="157.129" rx="5.0687" ry="5.06868" fill="#E3532F"/>
<ellipse opacity="0.4" cx="355.069" cy="157.13" rx="5.0687" ry="5.06868" fill="#E3532F"/>
</g>
</svg>
