<svg preserveAspectRatio="none" width="100%" height="100%" overflow="visible" style="display: block;" viewBox="0 0 17.7541 12.7972" fill="none" xmlns="http://www.w3.org/2000/svg">
<g id="Group">
<path id="Vector" fill-rule="evenodd" clip-rule="evenodd" d="M6.45858 0.000621809C6.45858 0.000621809 4.41326 -0.080498 2.20663 1.61033C2.20663 1.61033 0 5.59531 0 10.5081C0 10.5081 1.2231 12.7135 4.57698 12.7972C4.57698 12.7972 5.06694 12.1216 5.56172 11.5272C3.67772 10.934 2.94458 9.74761 2.94458 9.74761L3.57419 10.0848C3.69547 10.1366 3.81722 10.1893 3.93984 10.2424L3.94132 10.243C5.68042 10.9962 7.5946 11.8251 10.8369 11.2711L10.8877 11.2593C11.6039 11.0922 12.3213 10.9249 13.0375 10.593C13.1689 10.5231 13.3088 10.4532 13.4559 10.3797C13.8424 10.1866 14.2793 9.96821 14.7458 9.65891C14.7458 9.65891 14.0114 10.8452 12.0492 11.4384C12.4537 12.0291 13.0219 12.7059 13.0219 12.7059C15.7709 12.6436 17.1427 11.1518 17.5891 10.6664C17.6875 10.5594 17.7409 10.5013 17.7541 10.5182C17.7541 5.61306 15.5343 1.62047 15.5343 1.62047C13.5503 0.0931519 11.6964 0.024702 11.3461 0.023432L11.1222 0.255392C13.6563 1.01588 14.883 2.20352 14.883 2.20352C11.2065 0.297212 7.23505 0.188212 3.59827 1.69399C3.02644 1.95129 2.699 2.11986 2.699 2.11986C2.699 2.11986 3.9233 0.849842 6.6235 0.171732L6.45858 0.000621809ZM11.5861 9.06801C12.4345 9.06801 13.1255 8.28831 13.1255 7.32661C13.1255 6.37153 12.4381 5.59183 11.5861 5.59183V5.59573C10.7412 5.59573 10.0491 6.37283 10.0467 7.33441C10.0467 8.28831 10.7376 9.06801 11.5861 9.06801ZM7.61479 7.32661C7.61479 8.28831 6.92386 9.06801 6.07542 9.06801C5.22698 9.06801 4.53605 8.28831 4.53605 7.33441C4.53605 6.37283 5.22698 5.59573 6.07542 5.59573L6.08019 5.59183C6.92864 5.59183 7.61479 6.37153 7.61479 7.32661Z" fill="var(--fill-0, #ACA7BC)"/>
<path id="Vector_2" d="M11.3533 0.017102L11.3931 0.00189185H11.3678L11.3533 0.017102Z" fill="var(--fill-0, #ACA7BC)"/>
</g>
</svg>
