<svg preserveAspectRatio="none" width="100%" height="100%" overflow="visible" style="display: block;" viewBox="0 0 14 16" fill="none" xmlns="http://www.w3.org/2000/svg">
<g id="Frame" clip-path="url(#clip0_1695_4991)">
<path id="Vector" d="M11.1109 2.50645C10.5018 1.81327 10.1659 0.92237 10.166 0H9.42969C9.52486 0.509854 9.72294 0.995015 10.0119 1.42593C10.3008 1.85684 10.6751 2.22448 11.1109 2.50645Z" fill="var(--fill-0, #ACA7BC)"/>
<path id="Vector_2" d="M4.14179 7.87171C3.58088 7.8746 3.04959 8.13579 2.60933 8.4564C2.16906 8.77701 1.85755 9.22414 1.72429 9.72676C1.59103 10.2294 1.64365 10.7587 1.8738 11.2305C2.10395 11.7024 2.70134 12.0469 3.19748 12.2883C2.92614 11.9426 2.56076 11.5773 2.52512 11.1517C2.48948 10.7261 2.58205 10.2998 2.7926 9.91971C3.00315 9.53963 3.3235 9.22064 3.71824 8.99798C4.11299 8.77531 4.56677 8.65763 5.02947 8.65793C5.28153 8.66039 5.5319 8.69629 5.77287 8.76454V5.95224C5.52675 5.9183 5.27832 5.9006 5.02947 5.89925H4.8943L4.78564 7.91459C4.54446 7.85498 4.39138 7.86544 4.14179 7.87171Z" fill="var(--fill-0, #ACA7BC)"/>
<path id="Vector_3" d="M13.198 3.74854V5.88129C11.8232 5.8783 10.4842 5.44323 9.37075 4.6377V10.2419C9.36795 11.5849 8.83192 12.8719 7.88031 13.8206C6.9287 14.7692 5.63923 15.302 4.29486 15.302C3.25508 15.304 2.24031 14.9836 1.39062 14.3849C2.08347 15.1294 2.9847 15.6482 3.97693 15.8738C4.96915 16.0993 6.00638 16.0211 6.95347 15.6494C7.90058 15.2776 8.71367 14.6296 9.28682 13.7896C9.85997 12.9496 10.1666 11.9567 10.1668 10.9401V5.35338C11.2841 6.15359 12.6249 6.58274 13.9997 6.58018V3.83373C13.7302 3.83313 13.4616 3.80459 13.198 3.74854Z" fill="var(--fill-0, #ACA7BC)"/>
<path id="Vector_4" d="M9.37111 10.2434V4.6392C10.489 5.43999 11.9091 6.0314 13.2847 6.0278L13.2418 3.75518C12.4296 3.58396 11.6599 3.13105 11.1139 2.50645C10.6782 2.22448 10.3044 1.85684 10.0155 1.42593C9.7266 0.995015 9.52852 0.509854 9.43335 0H7.41233V11.0381C7.39267 11.5185 7.2237 11.9809 6.9289 12.361C6.6341 12.7411 6.22811 13.02 5.76734 13.159C5.30656 13.298 4.81389 13.2902 4.35777 13.1367C3.90165 12.9831 3.50473 12.6914 3.22216 12.3022C2.76508 12.0616 2.40159 11.6754 2.18948 11.2048C1.97736 10.7342 1.92878 10.2063 2.05147 9.70497C2.17416 9.20364 2.46107 8.75766 2.8666 8.43792C3.27213 8.11818 3.77301 7.94303 4.28962 7.9403C4.52181 7.9422 4.75248 7.97802 4.97429 8.04662V5.91325C3.9925 5.92993 3.03678 6.2316 2.22363 6.78149C1.41049 7.33137 0.775066 8.10572 0.39482 9.01012C0.0145742 9.91452 -0.094062 10.9099 0.0821558 11.8749C0.258374 12.8399 0.711833 13.7329 1.38725 14.4449C2.24505 15.023 3.26055 15.3223 4.29514 15.3021C5.63951 15.3021 6.92898 14.7693 7.88059 13.8207C8.83217 12.8723 9.36797 11.5862 9.37111 10.2434Z" fill="var(--fill-0, #ACA7BC)"/>
</g>
<defs>
<clipPath id="clip0_1695_4991">
<rect width="14" height="16" fill="white"/>
</clipPath>
</defs>
</svg>
