<svg preserveAspectRatio="none" width="100%" height="100%" overflow="visible" style="display: block;" viewBox="0 0 18 18" fill="none" xmlns="http://www.w3.org/2000/svg">
<g id="Frame">
<path id="Vector" fill-rule="evenodd" clip-rule="evenodd" d="M16.0428 2.89765C16.8138 3.11176 17.4217 3.73882 17.6293 4.53412C18.0148 5.98706 17.9999 9.01529 17.9999 9.01529C17.9999 9.01529 17.9999 12.0282 17.6293 13.4812C17.4217 14.2765 16.8138 14.9035 16.0428 15.1176C14.6342 15.5 8.99996 15.5 8.99996 15.5C8.99996 15.5 3.38055 15.5 1.95716 15.1024C1.18616 14.8882 0.578251 14.2612 0.370674 13.4659C0 12.0282 0 9 0 9C0 9 0 5.98706 0.370674 4.53412C0.578251 3.73882 1.20098 3.09647 1.95716 2.88235C3.36572 2.5 8.99996 2.5 8.99996 2.5C8.99996 2.5 14.6342 2.5 16.0428 2.89765ZM11.891 8.99983L7.20565 11.7834V6.2163L11.891 8.99983Z" fill="var(--fill-0, #ACA7BC)"/>
</g>
</svg>
